<svg width="88" height="88" fill="none" xmlns="http://www.w3.org/2000/svg"><circle opacity=".07" cx="44" cy="44" r="44" fill="#007AFF"/><path d="M53.25 44.5h-17.5v5.875h17.5V44.5zm8.112-13.861l-8.923-8.996a2.178 2.178 0 00-1.55-.643h-.556v11.75H62v-.56c0-.578-.228-1.138-.638-1.551zm-13.945 2.845V21h-18.23A2.19 2.19 0 0027 23.203v42.594A2.19 2.19 0 0029.188 68h30.625A2.19 2.19 0 0062 65.797v-30.11H49.604a2.202 2.202 0 01-2.187-2.203zM32.833 27.61c0-.405.327-.734.73-.734h7.291c.403 0 .73.329.73.734v1.47a.732.732 0 01-.73.733h-7.291a.732.732 0 01-.73-.734V27.61zm0 5.875c0-.405.327-.734.73-.734h7.291c.403 0 .73.329.73.734v1.47a.732.732 0 01-.73.733h-7.291a.732.732 0 01-.73-.734v-1.469zm23.334 27.907a.732.732 0 01-.73.734h-7.291a.732.732 0 01-.73-.734v-1.47c0-.405.327-.733.73-.733h7.291c.403 0 .73.328.73.734v1.469zm0-18.36v8.813c0 .811-.653 1.468-1.459 1.468H34.292a1.463 1.463 0 01-1.459-1.468V43.03c0-.811.653-1.468 1.459-1.468h20.416c.806 0 1.459.657 1.459 1.468z" fill="#007AFF"/></svg>