<svg width="88" height="88" fill="none" xmlns="http://www.w3.org/2000/svg"><circle opacity=".07" cx="44" cy="44" r="44" fill="#007AFF"/><path d="M24 28.286v31.428A4.287 4.287 0 0028.286 64h31.428A4.287 4.287 0 0064 59.714V28.286A4.287 4.287 0 0059.714 24H28.286A4.287 4.287 0 0024 28.286zm28.929 1.428c.589 0 1.071.482 1.071 1.072v4.643h2.143c1.187 0 2.143.955 2.143 2.142V38a2.138 2.138 0 01-2.143 2.143H54v17.071c0 .59-.482 1.072-1.071 1.072h-3.572c-.59 0-1.071-.482-1.071-1.072V40.143h-2.143A2.138 2.138 0 0144 38v-.429c0-1.187.955-2.142 2.143-2.142h2.143v-4.643c0-.59.482-1.072 1.071-1.072h3.572zm-14.286 0c.59 0 1.071.482 1.071 1.072v17.071h2.143c1.188 0 2.143.956 2.143 2.143v.429a2.138 2.138 0 01-2.143 2.142h-2.143v4.643c0 .59-.482 1.072-1.071 1.072H35.07a1.074 1.074 0 01-1.071-1.072v-4.643h-2.143a2.138 2.138 0 01-2.143-2.142V50c0-1.188.956-2.143 2.143-2.143H34V30.786c0-.59.482-1.072 1.071-1.072h3.572z" fill="#007AFF"/></svg>