<svg width="88" height="88" fill="none" xmlns="http://www.w3.org/2000/svg"><circle opacity=".07" cx="44" cy="44" r="44" fill="#007AFF"/><path d="M64.875 65H63V22.25A2.25 2.25 0 0060.75 20h-31.5A2.25 2.25 0 0027 22.25V65h-1.875c-.621 0-1.125.504-1.125 1.125V68h42v-1.875c0-.621-.504-1.125-1.125-1.125zM36 27.125c0-.621.504-1.125 1.125-1.125h3.75c.621 0 1.125.504 1.125 1.125v3.75c0 .621-.504 1.125-1.125 1.125h-3.75A1.125 1.125 0 0136 30.875v-3.75zm0 9c0-.621.504-1.125 1.125-1.125h3.75c.621 0 1.125.504 1.125 1.125v3.75c0 .621-.504 1.125-1.125 1.125h-3.75A1.125 1.125 0 0136 39.875v-3.75zM40.875 50h-3.75A1.125 1.125 0 0136 48.875v-3.75c0-.621.504-1.125 1.125-1.125h3.75c.621 0 1.125.504 1.125 1.125v3.75c0 .621-.504 1.125-1.125 1.125zM48 65h-6v-7.875c0-.621.504-1.125 1.125-1.125h3.75c.621 0 1.125.504 1.125 1.125V65zm6-16.125c0 .621-.504 1.125-1.125 1.125h-3.75A1.125 1.125 0 0148 48.875v-3.75c0-.621.504-1.125 1.125-1.125h3.75c.621 0 1.125.504 1.125 1.125v3.75zm0-9c0 .621-.504 1.125-1.125 1.125h-3.75A1.125 1.125 0 0148 39.875v-3.75c0-.621.504-1.125 1.125-1.125h3.75c.621 0 1.125.504 1.125 1.125v3.75zm0-9c0 .621-.504 1.125-1.125 1.125h-3.75A1.125 1.125 0 0148 30.875v-3.75c0-.621.504-1.125 1.125-1.125h3.75c.621 0 1.125.504 1.125 1.125v3.75z" fill="#007AFF"/></svg>