<svg width="22" height="18" fill="none" xmlns="http://www.w3.org/2000/svg"><path d="M22 2.118c-.81.37-1.683.614-2.587.73A4.547 4.547 0 0021.39.328c-.873.53-1.84.9-2.86 1.112C17.699.53 16.532 0 15.206 0c-2.47 0-4.49 2.033-4.49 4.542 0 .36.042.71.116 1.038A12.795 12.795 0 011.535.836a4.523 4.523 0 00-.61 2.277c0 1.578.79 2.975 2.009 3.77-.747 0-1.44-.212-2.05-.53v.032c0 2.202 1.556 4.044 3.617 4.457a4.414 4.414 0 01-2.03.074c.568 1.79 2.22 3.124 4.207 3.156a8.923 8.923 0 01-5.605 1.948c-.358 0-.715-.021-1.073-.063A12.709 12.709 0 006.92 18c8.287 0 12.84-6.925 12.84-12.928 0-.201 0-.392-.01-.593A9.048 9.048 0 0022 2.118z" fill="#ADC0E0"/></svg>