<svg width="1013" height="891" fill="none" xmlns="http://www.w3.org/2000/svg"><path d="M2 469.617c48-52.5 175.5-33 204 24.5s-67.5 104.001-31 148.001 73.5 21.5 98 52.5C314.004 746.501 330 742 347.5 759c22.624 21.978 27.167 61.5 36.5 73.001 92 120.5 228.5 29.5 237-85.5C625.67 683.315 568 662 556 614s62.5-77.5 98-38.5c40.311 57.281-5 59 102 183 27.855 32.281 156.5 139 232.5-7.5 85.14-164.124-94-187-170.5-222.5S756 429 777.5 377l7-16c24-72.4 71.745-78.366 105-137 38-67-18-145.542-54.5-179-77.774-71.292-238.5-59-221.5 80.001 17 139-74 50-129.5 87l-14 7.499s-27 16.5-88.5 10c-41.631-4.4-50.5 35-88 57.5-90 46-52.5-165.5-91.5-204.5S117.501 63 72.5 108" stroke="#99CAFF" stroke-width="3" stroke-linecap="round" stroke-linejoin="round" stroke-dasharray="0.01 18"/></svg>