<svg width="99" height="68" fill="none" xmlns="http://www.w3.org/2000/svg"><path opacity=".4" d="M14.42 29.143c5.303 0 9.614-4.356 9.614-9.715 0-5.358-4.311-9.714-9.614-9.714-5.302 0-9.613 4.356-9.613 9.714 0 5.359 4.311 9.715 9.613 9.715zM9.614 34C4.31 34 0 38.356 0 43.714v4.857c0 2.687 2.148 4.858 4.807 4.858h9.899c.931-7.043 5.122-13.206 11.296-16.606A9.572 9.572 0 0019.227 34H9.614z" fill="#007AFF"/><path d="M59.604 38.857h-1.247a23.522 23.522 0 01-10.29 2.429c-3.695 0-7.15-.911-10.289-2.429h-1.247c-9.553 0-17.304 7.832-17.304 17.486v4.371c0 4.023 3.23 7.286 7.21 7.286h43.261c3.98 0 7.21-3.263 7.21-7.286v-4.371c0-9.654-7.75-17.486-17.304-17.486zM48.068 34c9.298 0 16.823-7.605 16.823-17 0-9.396-7.525-17-16.824-17-9.297 0-16.823 7.604-16.823 17 0 9.38 7.526 17 16.809 17h.015z" fill="#007AFF"/><path opacity=".4" d="M98.073 35.791l-4.07-10.109c-.377.531-.917.91-1.533 1.093-1.502.41-1.622.319-2.689 1.412a2.733 2.733 0 01-3.44.41 2.721 2.721 0 00-2.944 0 2.733 2.733 0 01-3.44-.41c-1.021-1.048-1.141-.987-2.689-1.412a2.763 2.763 0 01-1.532-1.078L71.65 35.791c-.225.577.046 1.23.616 1.457.15.06.3.091.451.076l3.65-.137 2.509 2.687a1.09 1.09 0 001.562.046c.12-.107.21-.243.27-.395l4.161-10.291 4.146 10.29c.225.578.871.85 1.442.623a.993.993 0 00.39-.273l2.51-2.671 3.65.136c.615.03 1.126-.455 1.156-1.078 0-.166-.03-.318-.09-.47zM84.869 21.189c2.449 0 4.431-2.003 4.431-4.477s-1.982-4.478-4.43-4.478c-2.45 0-4.432 2.004-4.432 4.478 0 2.474 1.983 4.477 4.431 4.477z" fill="#007AFF"/><path d="M96.961 15.088a2.917 2.917 0 00-.72-2.763c-1.413-1.457-1.278-1.214-1.803-3.203a2.848 2.848 0 00-1.968-2.034c-1.938-.53-1.697-.394-3.11-1.851a2.762 2.762 0 00-2.688-.744c-1.938.531-1.668.531-3.59 0a2.728 2.728 0 00-2.689.744c-1.412 1.457-1.172 1.32-3.11 1.851a2.848 2.848 0 00-1.967 2.034c-.51 1.989-.39 1.746-1.803 3.203a2.916 2.916 0 00-.72 2.763c.51 1.988.51 1.7 0 3.688a2.917 2.917 0 00.72 2.762c1.412 1.457 1.277 1.215 1.803 3.203a2.849 2.849 0 001.968 2.034c1.547.425 1.667.364 2.688 1.412a2.733 2.733 0 003.44.41 2.72 2.72 0 012.944 0 2.733 2.733 0 003.44-.41c1.052-1.093 1.172-.987 2.689-1.412a2.823 2.823 0 001.968-2.034c.51-1.988.39-1.745 1.802-3.203a2.916 2.916 0 00.721-2.762c-.525-1.973-.54-1.7-.015-3.688zM84.87 23.436c-3.665 0-6.654-3.006-6.654-6.724 0-3.72 2.974-6.725 6.654-6.725 3.68 0 6.655 3.006 6.655 6.725 0 3.718-2.99 6.724-6.655 6.724z" fill="#007AFF"/></svg>