<svg width="60" height="80" fill="none" xmlns="http://www.w3.org/2000/svg"><path opacity=".4" d="M59.376 20H42.058c-1.36 0-2.474-1.125-2.474-2.5V0H3.711C1.67 0 0 1.672 0 3.734V76.25C0 78.313 1.654 80 3.695 80h51.97c2.041 0 3.711-1.672 3.711-3.734V20zm-49.48-8.75c0-.688.557-1.25 1.237-1.25h12.37c.68 0 1.237.563 1.237 1.25v2.5c0 .688-.557 1.25-1.237 1.25h-12.37c-.68 0-1.237-.563-1.237-1.25v-2.5zm0 10c0-.688.557-1.25 1.237-1.25h12.37c.68 0 1.237.563 1.237 1.25v2.5c0 .688-.557 1.25-1.237 1.25h-12.37c-.68 0-1.237-.563-1.237-1.25v-2.5zM47.006 65h-7.298a6.595 6.595 0 01-5.969-3.734 1.718 1.718 0 00-1.577-1.016 1.673 1.673 0 00-1.546.969l-1.19 2.39c-.418.844-1.284 1.391-2.212 1.375h-.17a2.49 2.49 0 01-2.165-1.703l-2.613-7.89-1.64 4.984c-.911 2.75-3.463 4.61-6.339 4.61H12.37c-1.36 0-2.474-1.126-2.474-2.5 0-1.376 1.113-2.5 2.474-2.5h1.917c.742 0 1.407-.485 1.64-1.204l2.814-8.531c.649-1.969 2.752-3.031 4.685-2.375a3.725 3.725 0 012.35 2.375l2.15 6.5c3.06-2.531 8.365-1.516 10.204 2.219a1.76 1.76 0 001.578 1.015h7.298c1.36 0 2.474 1.125 2.474 2.5S48.367 65 47.006 65z" fill="#007AFF"/><path d="M58.294 16.406L43.156 1.094A3.689 3.689 0 0040.527 0h-.943v17.5c0 1.375 1.113 2.5 2.474 2.5h17.318v-.953c0-.985-.386-1.938-1.082-2.64zM47.006 60h-7.298a1.76 1.76 0 01-1.578-1.016c-1.855-3.734-7.143-4.75-10.205-2.218l-2.149-6.5c-.65-1.97-2.752-3.032-4.685-2.375a3.725 3.725 0 00-2.35 2.375l-2.815 8.53A1.729 1.729 0 0114.287 60H12.37c-1.36 0-2.474 1.125-2.474 2.5S11.009 65 12.37 65h1.917c2.876 0 5.428-1.86 6.34-4.61l1.639-4.984 2.613 7.89A2.49 2.49 0 0027.044 65c.062 0 .124.016.17 0 .943 0 1.794-.531 2.211-1.39l1.19-2.391a1.673 1.673 0 011.547-.969c.68 0 1.299.39 1.577 1.016A6.657 6.657 0 0039.708 65h7.298c1.36 0 2.474-1.125 2.474-2.5S48.367 60 47.006 60z" fill="#007AFF"/></svg>