<svg width="100" height="80" fill="none" xmlns="http://www.w3.org/2000/svg"><path opacity=".4" d="M83.65 35.734L79.428 40l4.222 4.266a2.52 2.52 0 01.727 1.765V60H70.553a2.47 2.47 0 00-1.748.734L64.585 65l-4.222-4.266A2.47 2.47 0 0058.615 60h-11.35c-1.36 0-2.473 1.125-2.473 2.5v5c0 6.906-5.536 12.5-12.37 12.5h-.093c-6.82-.047-12.278-5.766-12.278-12.656V41.03c0-.656.263-1.297.727-1.765L24.999 35l-4.221-4.266a2.523 2.523 0 01-.727-1.765V10.156C20.05 4.546 15.55 0 10 0h59.532c7.732 0 14.164 6 14.798 13.781a2.587 2.587 0 01-.711 2L79.444 20l4.221 4.266a2.52 2.52 0 01.727 1.765v7.922a2.615 2.615 0 01-.742 1.781z" fill="#007AFF"/><path d="M10.146 0C4.688 0 .25 4.484.25 10v7.5c0 1.375 1.113 2.5 2.474 2.5h17.319v-9.844C20.043 4.61 15.636.078 10.146 0zM96.74 60H70.543a2.47 2.47 0 00-1.747.734L64.576 65l-4.222-4.266A2.47 2.47 0 0058.607 60h-11.35c-1.36 0-2.474 1.125-2.474 2.5v5c0 6.906-5.536 12.5-12.37 12.5h49.481c9.572 0 17.319-7.828 17.319-17.5v-.016A2.481 2.481 0 0096.739 60z" fill="#007AFF"/></svg>