<svg width="97" height="68" fill="none" xmlns="http://www.w3.org/2000/svg"><path opacity=".4" d="M81.715 29.143c5.31 0 9.613-4.35 9.613-9.714 0-5.365-4.304-9.715-9.613-9.715-5.31 0-9.614 4.35-9.614 9.715s4.304 9.714 9.614 9.714zM9.613 34C4.311 34 0 38.356 0 43.714v4.857c0 2.687 2.148 4.858 4.807 4.858h9.899c.916-7.043 5.122-13.206 11.28-16.606A9.572 9.572 0 0019.212 34H9.613zm4.807-4.857c5.31 0 9.614-4.35 9.614-9.714 0-5.365-4.304-9.715-9.614-9.715-5.31 0-9.613 4.35-9.613 9.715s4.304 9.714 9.613 9.714zM86.521 34h-9.613a9.572 9.572 0 00-6.775 2.823c6.174 3.4 10.365 9.563 11.281 16.606h9.9c2.658 0 4.806-2.171 4.806-4.858v-4.857c.015-5.358-4.296-9.714-9.6-9.714zM48.067 0l-7.21 3.643-7.21 1.67v6.83h28.84v-6.83l-7.21-1.67L48.068 0z" fill="#007AFF"/><path d="M48.159 34c7.96 0 14.42-6.527 14.42-14.571V17h-28.84v2.429c0 8.044 6.458 14.571 14.42 14.571zm11.536 4.857h-1.247c-3.124 1.518-6.594 2.429-10.29 2.429-3.695 0-7.15-.911-10.289-2.429h-1.247c-9.553 0-17.304 7.832-17.304 17.486v4.371c0 4.023 3.23 7.286 7.21 7.286h43.26C73.77 68 77 64.737 77 60.714v-4.371c0-9.654-7.75-17.486-17.304-17.486z" fill="#007AFF"/></svg>