<svg width="104" height="80" fill="none" xmlns="http://www.w3.org/2000/svg"><path d="M97.695 13.125h-26.72c-3.17 0-5.721 2.594-5.721 5.781v50.157c0 3.203 2.566 5.78 5.72 5.78h26.72c3.171 0 5.722-2.593 5.722-5.78V18.906c.016-3.187-2.551-5.781-5.721-5.781zm-13.36 57.86c-2.103 0-3.82-1.735-3.82-3.86s1.717-3.86 3.82-3.86c2.103 0 3.82 1.735 3.82 3.86 0 2.14-1.702 3.86-3.82 3.86zm-51.894-57.86H5.721C2.551 13.125 0 15.719 0 18.906v50.157c0 3.203 2.567 5.78 5.721 5.78h26.72c3.17 0 5.721-2.593 5.721-5.78V18.906c.016-3.187-2.55-5.781-5.72-5.781zm-13.36 57.86c-2.103 0-3.82-1.735-3.82-3.86s1.717-3.86 3.82-3.86c2.103 0 3.82 1.735 3.82 3.86 0 2.14-1.701 3.86-3.82 3.86z" fill="#99CAFF"/><path d="M69.12 0H34.481c-4.097 0-7.422 3.36-7.422 7.5v65c0 4.14 3.325 7.5 7.422 7.5H69.12c4.098 0 7.422-3.36 7.422-7.5v-65c0-4.14-3.324-7.5-7.422-7.5zM51.8 75c-2.736 0-4.947-2.234-4.947-5s2.21-5 4.948-5c2.737 0 4.948 2.234 4.948 5s-2.211 5-4.948 5z" fill="#007AFF"/><path d="M51.306 19.594a56.043 56.043 0 01-.696 25.234c-.634-5.719-1.283-11.469-1.917-17.187a68.825 68.825 0 01-2.722 8.89l3.155.282-3.418.406c-.417 1.031-.835 2.062-1.345 3.125l4.732.39-5.196.594a91.404 91.404 0 01-1.562 3.047l6.665.64-7.577 1a55.789 55.789 0 01-1.639 2.641c11.133-1.125 18.896-7 18.664.235 10.84-8.985 3.82-24.141-7.144-29.297z" fill="#fff"/></svg>