<svg width="80" height="80" fill="none" xmlns="http://www.w3.org/2000/svg"><path d="M79.2 20v56.266c0 2.062-1.67 3.734-3.711 3.734H34.667V65.75c2.706-1.172 4.731-3.547 5.489-6.422.062-.219.108-.422.154-.61.109-.406.217-.843.294-1.093.17-.188.48-.5.758-.797l.448-.453a9.847 9.847 0 002.444-9.281c-.062-.219-.109-.422-.155-.61-.108-.406-.232-.859-.278-1.125.062-.265.185-.718.293-1.14.047-.188.093-.39.155-.594a9.852 9.852 0 00-2.412-9.266l-.433-.437c-.279-.297-.603-.61-.789-.813-.077-.25-.185-.703-.293-1.109-.047-.188-.093-.39-.155-.61a9.6 9.6 0 00-6.665-6.828h-.015l-.588-.156c-.37-.11-.788-.218-1.051-.297-.186-.187-.495-.5-.773-.797-.124-.14-.263-.28-.418-.437-2.381-2.469-5.907-3.453-9.2-2.547h-.016l-.587.156c-.371.11-.773.22-1.036.282V3.734c0-2.046 1.639-3.718 3.68-3.734h35.874v17.5c0 1.375 1.113 2.5 2.474 2.5H79.2z" fill="#99CAFF"/><path d="M78.117 16.406L62.98 1.094A3.689 3.689 0 0060.351 0h-.944v17.5c0 1.375 1.114 2.5 2.474 2.5H79.2v-.953c0-.985-.387-1.938-1.083-2.64zM39.46 42.36a4.76 4.76 0 00-1.175-4.5c-2.304-2.359-2.072-1.968-2.922-5.203a4.611 4.611 0 00-3.201-3.281c-3.14-.86-2.753-.64-5.057-3a4.465 4.465 0 00-4.376-1.219c-3.139.86-2.706.86-5.845 0a4.477 4.477 0 00-4.376 1.203c-2.304 2.375-1.933 2.141-5.056 3a4.578 4.578 0 00-3.2 3.297c-.851 3.235-.62 2.828-2.923 5.203a4.76 4.76 0 00-1.176 4.5c.85 3.235.835 2.782 0 6a4.76 4.76 0 001.176 4.5c2.304 2.36 2.072 1.97 2.922 5.203a4.578 4.578 0 003.2 3.297c2.212.61 1.78.47 2.444.782V80l9.896-5 9.897 5V62.125c.665-.313.232-.172 2.443-.781a4.579 4.579 0 003.2-3.297c.851-3.234.62-2.828 2.923-5.203a4.76 4.76 0 001.175-4.5c-.804-3.203-.804-2.75.031-5.985zM19.822 55c-5.458 0-9.896-4.484-9.896-10s4.438-10 9.896-10c5.459 0 9.896 4.484 9.896 10s-4.437 10-9.896 10z" fill="#007AFF"/></svg>