<svg width="516" height="431" fill="none" xmlns="http://www.w3.org/2000/svg"><g clip-path="url(#clip0)"><path opacity=".07" d="M162.473 417.17c-65.847 5.645-187.295-138.274-98.905-223.871 88.39-85.597 152.714 52.248 240.099-16.72 87.386-68.967 138.396-78.18 167.562-42.064 29.167 36.115 76.611 192.17-62.789 196.336-139.4 4.165-126.707 76.136-245.967 86.319z" fill="#007BFF"/><path opacity=".07" d="M116.924 407.551c-64.978.226-83.493-.214-99.955-15.805-39.084-36.849-10.944-145.635 87.51-173.734 23.559-6.774 41.341-6.774 59.799-33.677 14.488-21.111 20.31-46.626 27.305-70.435C206.578 62.86 238.915-5.735 308.124.384c36.771 3.251 61.277 27.738 80.424 58.705a288.93 288.93 0 0137.38 94.64c9.027 44.65 48.201 74.567 69.762 113.708 20.107 36.477 36.433 101.233-7.898 129.13-25.194 15.805-28.207 9.856-370.868 10.984z" fill="#007BFF"/><path opacity=".58" d="M147.016 351.273c-3.464.599-8.711 3.071-16.293 4.437a47.806 47.806 0 01-27.665-3.014 55.583 55.583 0 01-8.61-4.798 57.274 57.274 0 01-7.141-5.905 59.087 59.087 0 01-9.963-12.96c-4.92-8.614-6.544-16.088-8.35-20.321 1.806 4.256 6.691 10.16 13.71 15.805a115.442 115.442 0 0025.95 15.354 237.679 237.679 0 0022.43 8.828c6.68 2.145 12.445 3.195 15.932 2.574z" fill="#44A1F2"/><path d="M65.283 413.863c-2.257-.746-9.15 4.301-15.458 2.19-7.706-2.586-11.847-11.29-14.758-12.306 2.911.971 11.486-3.522 19.181-.948 6.319 2.111 8.812 10.318 11.035 11.064z" fill="#44A1F2"/><path d="M431.954 396.262a108.797 108.797 0 01-13.867 10.375c-4.886 3.252-10.008 6.458-14.555 9.608-4.547 3.149-8.688 6.096-11.588 8.331l-4.75 3.613-.733-1.423a39.84 39.84 0 01-1.805-4.131 54.497 54.497 0 01-3.385-15.727 58.919 58.919 0 013.001-23.064 55.01 55.01 0 0115.173-23.345 54.952 54.952 0 0124.656-12.917 58.781 58.781 0 0123.22-.847 54.041 54.041 0 0115.277 4.843 43.229 43.229 0 013.938 2.19l1.342.87-3.994 4.369c-2.493 2.675-5.844 6.503-9.376 10.759-3.532 4.256-7.244 9.031-10.933 13.547a108.297 108.297 0 01-11.621 12.949z" fill="url(#paint0_linear)"/><path d="M443.575 367.011a28.595 28.595 0 00-10.267-.169 93.856 93.856 0 0133.611-11.121l1.005-1.128-1.219-.791a95.713 95.713 0 00-34.368 11.369 126.421 126.421 0 0013.134-18.583l.09-.158c-.7-.09-1.41-.169-2.132-.237-2.257 3.793-5.044 8.241-8.305 12.622a55.929 55.929 0 01-11.948 12.238 93.213 93.213 0 00-14.296 12.791 179.228 179.228 0 007.109-18.493 577.766 577.766 0 005.303-16.821l.079-.248c-.779.225-1.546.485-2.325.745-1.444 4.978-3.701 12.418-6.386 20.163-2.618 7.553-5.878 16.257-11.35 24.159a92.92 92.92 0 00-7.537 12.825c.53-3.387.902-7.078 1.128-11.368.327-4.776.451-9.472.53-13.548.158-8.252.181-14.958.102-16.448v-.396a55.75 55.75 0 00-1.975 2.349c.068 3.454.068 11.56-.169 20.614-.181 5.645-.496 10.409-1.004 14.846a72.028 72.028 0 01-3.261 15.139c-1.128 3.455-1.974 6.537-2.629 9.438l.677 1.299 1.128-.904c.632-2.833 1.467-5.859 2.573-9.234a27.004 27.004 0 018.394-12.08 31.101 31.101 0 0111.712-5.995 35.105 35.105 0 0116.924-.361c.553-.44 1.129-.881 1.625-1.332l-.406-.113a36.29 36.29 0 00-13.54-.937 35.177 35.177 0 00-11.463 3.387 31.161 31.161 0 00-8.71 6.446 90.33 90.33 0 017.379-12.565 26.708 26.708 0 019.804-8.49 30.458 30.458 0 0111.374-3.116 35.716 35.716 0 0117.353 3.297l1.128-1.366h-.068a37.031 37.031 0 00-14.431-3.782 31.686 31.686 0 00-17.657 4.165 90.788 90.788 0 0114.002-12.565 23.602 23.602 0 0115.457-4.222 29.936 29.936 0 0112.694 3.951c.383-.485.767-.948 1.128-1.422h-.068a31.946 31.946 0 00-9.929-3.85z" fill="#40495F"/><path opacity=".35" d="M463.309 326.109a39.856 39.856 0 00-7.661 2.901l-4.762 2.518c-1.681.892-3.385 2.021-5.269 3.093-7.368 4.448-15.852 10.161-25.635 16.167-5.946 3.793-11.621 7.44-16.924 11.041-5.303 3.601-10.154 7.158-14.431 10.669-8.642 6.898-15.04 13.423-18.052 18.142 3.001-4.697 6.42-13.141 12.873-22.839a104.019 104.019 0 0111.972-14.958 96.952 96.952 0 0117.138-13.898 79.5 79.5 0 0130.724-10.917c8.936-1.366 15.931-.971 20.027-1.919z" fill="#44A1F2"/><path opacity=".66" d="M456.686 304.117c-3.52.937-8.609 3.974-14.521 8.309-5.912 4.335-12.727 9.619-20.67 15.117-4.829 3.443-9.455 6.706-13.811 9.912-4.355 3.206-8.371 6.345-11.892 9.449-7.142 6.097-12.411 11.866-14.667 16.043 2.256-4.155 4.445-11.64 9.24-20.412a83.39 83.39 0 019.218-13.626 76.434 76.434 0 0113.912-12.802 62.09 62.09 0 0126.064-10.161c7.661-1.264 13.629-.892 17.127-1.829z" fill="#44A1F2"/><path opacity=".54" d="M459.698 279.19a27.845 27.845 0 00-6.397 2.721l-3.87 2.393c-1.377.858-2.742 1.953-4.22 2.98-5.856 4.29-12.321 9.743-19.779 15.591-4.513 3.658-8.8 7.203-12.772 10.737-3.972 3.533-7.605 7.01-10.651 10.521-6.273 6.853-10.493 13.424-12.028 17.939 1.512-4.459 2.404-12.192 6.082-21.54a71.6 71.6 0 017.695-14.609 68.56 68.56 0 0112.998-13.953 56.217 56.217 0 0125.815-11.109c1.941-.271 3.712-.587 5.416-.689l4.716-.316a39.18 39.18 0 006.995-.666z" fill="#44A1F2"/><path d="M393.829 270.531c.508 3.59 3.137 8.93 5.156 16.381a67.756 67.756 0 012.121 27.659 83.713 83.713 0 01-4.851 18.063 94.206 94.206 0 01-7.345 14.564c-5.179 8.456-10.381 14.236-12.705 18.357 2.347-4.132 4.457-11.629 6.206-20.909.925-4.617 1.636-9.731 2.471-15.094.835-5.362 1.568-11.052 2.403-17.002 1.343-9.675 3.272-18.153 4.716-25.39 1.444-7.236 2.336-13.028 1.828-16.629z" fill="#44A1F2"/><path d="M136.839 236.978c2.888-10.657 2.256-16.403-.61-19.79-2.865-3.387-7.424-4.855-12.952-6.988a18.307 18.307 0 01-7.176-5.273 18.924 18.924 0 01-4.13-8.139c-1.309-6.108.598-13.457 8.496-19.825 7.898-6.367 16.27-3.646 23.57 1.852 3.564 2.85 6.878 6 9.907 9.415 2.854 3.297 5.325 6.379 7.3 8.411 3.994 4.03 9.026 2.325 15.705 1.038 6.68-1.287 14.961-2.088 24.744 4.607a31.034 31.034 0 016.217 5.441 30.249 30.249 0 014.039 6.221 35.606 35.606 0 013.452 13.457 107.42 107.42 0 01-.067 13.367 81.863 81.863 0 00-.237 11.729c1.309 13.807 13.539 22.038 31.016 25.966 8.722 1.931 13.224 6.334 15.311 11.741 2.088 5.408 1.332 12.046-.146 18.594-3.193 13.232-3.385 20.005 9.026 30.979 3.182 2.732 4.581 6.615 4.84 10.838a26.517 26.517 0 01-3.102 13.299 39.502 39.502 0 01-23.57 19.847c-10.46 3.093-23.694 2.258-35.745-1.592-12.05-3.85-23.57-10.556-30.994-20.423a35.72 35.72 0 01-7.582-19.982c-.395-6.774.497-13.548 1.546-20.423 1.049-6.875 1.839-13.548 1.343-19.915a30.935 30.935 0 00-2.336-9.031 22.635 22.635 0 00-5.743-8.005 92.596 92.596 0 00-7.774-6.367c-2.595-1.818-5.156-3.387-7.525-4.832l-6.68-4.087a45.17 45.17 0 01-5.641-3.895 17.622 17.622 0 01-6.398-10.16c-.869-4.426-.214-10.195 1.896-18.075z" fill="url(#paint1_linear)"/><path d="M243.541 368.388c.237-11.289 8.011-16.494 31.299-20.321a17.212 17.212 0 00-.542-2.179c-18.91 3.128-30.103 7.463-32.506 18.289a1172.88 1172.88 0 00-14.408-33.123c2.053-14.281 7.729-25.018 16.868-31.904a46.568 46.568 0 0117.488-7.903c-.101-.35-.192-.711-.316-1.061s-.293-.711-.451-1.05a48.624 48.624 0 00-18.053 8.207c-8.902 6.706-14.667 16.81-17.183 30.064a1011.777 1011.777 0 00-16.383-34.128c1.128-2.766 7.007-16.934 10.448-28.845a23.322 23.322 0 01-1.647-2.416c-2.968 10.217-8.158 23.799-10.155 28.631l-.26-.508c-6.168-12.14-12.219-23.347-18.154-33.621-3.204-13.118 1.129-30.481 11.215-45.327a73.836 73.836 0 014.514-6.017 36.173 36.173 0 00-1.727-1.434 80.603 80.603 0 00-4.682 6.187c-9.026 13.265-13.54 28.506-12.468 41.252-16.119-27.306-31.208-47.563-45.267-60.772a47.215 47.215 0 01-2.335-14.812 23.93 23.93 0 00-2.257-1.005 46.763 46.763 0 001.399 12.927 74.107 74.107 0 00-16.563-11.29c-.338.249-.677.475-1.015.757l-.474 1.016a69.807 69.807 0 0116.134 10.86 51.112 51.112 0 00-24.359 2.01 16.298 16.298 0 00-.17 2.438c15.503-5.069 26.402-1.817 28.061-1.253 15.525 14.677 31.141 37.064 45.492 61.483-11.508-6.39-30.994-11.177-49.17-13.051a42.85 42.85 0 00-.452 2.078c19.937 2.032 41.589 7.688 52.037 15.116a715.554 715.554 0 0118.053 33.338 242.283 242.283 0 00-45.865-14.055l1.478 1.005c.925.688 1.861 1.411 2.809 2.156a241.844 241.844 0 0143.157 14.01 998.394 998.394 0 0114.837 30.696c-10.978-10.16-28.737-17.013-44.815-20.49v2.258c18.176 3.974 38.361 12.294 47.918 25.017 6.138 13.48 11.283 25.413 15.029 34.49-11.283-6.187-30.001-16.234-58.784-5.397l.395 1.05c.237.316.485.621.733.926 27.891-10.364 46.034-.406 56.888 5.566l2.133 1.129c3.498 8.478 5.562 13.818 5.89 14.676.372-.09.733-.18 1.128-.293l1.038-.395c-.045-.204-2.189-5.769-5.98-14.982z" fill="#394760"/><path d="M396.751 129.367c11.283-1.355 16.225-3.771 19.102-7.395a16.69 16.69 0 002.764-6.458c.305-1.23.542-2.551.824-3.928.282-1.378.632-2.778 1.016-4.279a21.142 21.142 0 014.513-8.388 18.937 18.937 0 018.033-5.408c6.161-2.134 13.303-.689 19.813 6.774a16.082 16.082 0 014.344 11.289c-.068 3.794-1.614 7.35-3.453 10.951a69.136 69.136 0 01-6.702 9.957c-2.256 3.116-4.355 5.848-5.641 7.971-2.674 4.2.665 8.49 4.05 13.863 3.385 5.374 6.917 11.945 5.924 21.202a22.212 22.212 0 01-1.625 6.096 17.48 17.48 0 01-2.911 4.889 32.446 32.446 0 01-8.722 6.774c-3.294 1.874-6.905 3.386-10.335 4.967a49.023 49.023 0 00-8.845 5.001c-9.76 7.35-7.368 21.168 2.798 33.338 5.077 6.119 6.171 10.816 4.513 14.846-1.659 4.03-5.438 7.507-10.245 10.849-9.252 6.706-13.077 12.046-6.77 24.352a10.653 10.653 0 01.17 9.325 26.286 26.286 0 01-7.436 8.93 47.146 47.146 0 01-27.857 10.16c-10.618.091-22.566-4.245-32.506-12.971a55.647 55.647 0 01-18.583-37.154 46.998 46.998 0 015.54-26.158c3.768-7.27 9.342-13.118 14.667-18.537 2.641-2.721 5.518-5.25 8.135-7.824a82.24 82.24 0 007.233-7.903 40.385 40.385 0 005.641-8.67 31.793 31.793 0 001.862-4.967 39.982 39.982 0 001.252-5.498c.576-3.884.914-7.576 1.128-11.098.215-3.522.52-6.774.7-9.901.181-3.127.305-6.108.632-8.862a58.124 58.124 0 011.433-7.609 27.63 27.63 0 012.685-6.639 19.727 19.727 0 014.795-5.362c4.062-3.139 9.602-5.543 18.064-6.525z" fill="url(#paint2_linear)"/><path d="M438.035 170.641c-13.144.44-27.135 9.461-39.106 24.984a1360.058 1360.058 0 0120.67-46.558 1348.17 1348.17 0 017.582-15.896v.192l3.385-7.033c4.761-9.856 13.145-16.212 21.866-16.596a19.47 19.47 0 014.671.373 15.097 15.097 0 00-.349-2.337 21.305 21.305 0 00-4.412-.271 25.307 25.307 0 00-15.796 6.943c4.005-7.722 7.48-14.09 10.391-19.192a18.688 18.688 0 00-1.963-1.073c-.282.474-.553.96-.846 1.468-3.836 6.773-8.169 14.947-12.738 23.979.541-6.379.778-16.348-1.681-24.634-.677.384-1.329.81-1.952 1.276 3.249 11.876.947 27.569.688 29.228a1084.634 1084.634 0 00-9.591 19.825c-5.54 11.786-13.133 28.461-21.787 48.985 1.264-33.361-7.785-49.121-17.556-59.056l-.812.61c-.339.26-.643.542-.959.813 10.086 10.239 19.395 26.88 16.732 63.831a1500.013 1500.013 0 00-23.028 58.773c-.621-3.161-1.185-6.683-1.76-10.375-2.257-14.383-4.931-31.43-13.98-41.015a41.824 41.824 0 01-1.546 1.671c8.519 9.145 11.125 25.706 13.314 39.694.801 5.114 1.557 9.946 2.539 13.965a1532.906 1532.906 0 00-10.38 29.443c-3.081-22.308-9.534-49.301-27.553-59.733-.429.599-.835 1.22-1.241 1.841 14.194 8.038 22.915 28.325 27.169 62.713a1856.3 1856.3 0 00-4.231 12.802 46.85 46.85 0 002.053.948c1.414-4.357 2.832-8.662 4.254-12.915 17.703-11.38 38.001-7.361 49.949-4.516.163-.741.243-1.498.237-2.257-11.215-2.608-31.344-6.481-49.08 3.533a1407.465 1407.465 0 0110.933-31.17c12.546-14.869 36.003-16.11 54.744-15.659a9.508 9.508 0 00-.169-2.258c-17.015-.361-39.084.779-52.714 12.814a1467.083 1467.083 0 0120.953-53.648l1.466-2.19c12.412-18.65 27.632-29.612 41.679-30.087a20.31 20.31 0 0113.021 3.669c0-.316.101-.62.147-.948.056-.542.09-1.072.124-1.592a23.26 23.26 0 00-13.337-3.364z" fill="#394760"/><path d="M81.034 413.637a71.613 71.613 0 0028.026 10.781c4.509.688 9.07.979 13.63.87 2.178 0 4.265-.159 6.285-.35 2.019-.192 3.982-.542 5.833-.87a69.455 69.455 0 009.985-2.506 96.422 96.422 0 004.051-1.4c1.241-.463 2.38-.993 3.385-1.456a62.796 62.796 0 006.228-3.195s-1.636-2.111-4.434-5.34l-2.257-2.608-2.618-3.116c-1.839-2.167-3.903-4.448-6.047-7.022l-6.77-7.767c-2.403-2.563-4.806-5.419-7.402-7.903a99.348 99.348 0 00-16.788-14.417 98.038 98.038 0 00-19.712-10.047c-3.317-1.457-6.86-2.586-10.154-3.85l-9.782-3.387c-3.194-1.005-6.082-2.043-8.79-2.935l-3.904-1.231-3.283-1.129c-4.05-1.354-6.623-2.077-6.623-2.077a64.192 64.192 0 00-.575 6.977c0 1.129-.068 2.348-.068 3.692 0 1.343.124 2.743.248 4.278a69.626 69.626 0 001.49 10.161c.398 1.836.868 3.752 1.41 5.746.586 1.942 1.297 3.907 2.064 5.939a77.326 77.326 0 005.98 12.294 72 72 0 0020.592 21.868z" fill="url(#paint3_linear)"/><path d="M97.394 416.019c1.41-.328 2.911-.621 4.513-.937l2.11-.429c2.629-.531 5.19-.982 7.593-1.321 10.155-1.524 22.171-2.664 34.413.485 2.956.847 6.014 1.457 9.026 2.044l2.11.429c.892-.486 1.365-.779 1.365-.779l-1.004-1.253-2.087-.418c-2.911-.576-5.924-1.186-8.835-2.01a37.498 37.498 0 01-4.264-1.366 43.97 43.97 0 01-3.927-1.964 36.874 36.874 0 01-3.588-2.258 41.312 41.312 0 01-3.204-2.732 45.53 45.53 0 01-2.844-2.879c-.891-.993-1.737-2.111-2.516-3.24a39.556 39.556 0 01-3.858-6.491 57.874 57.874 0 01-2.562-6.379 49.977 49.977 0 01-1.478-5.803 47.555 47.555 0 01-.959-7.575 60.775 60.775 0 00-1.929-1.468v.621c.008 1.786.128 3.57.361 5.34a57.579 57.579 0 002.415 10.545c1.827 5.407 6.205 15.071 15.536 21.867-1.128-.406-2.256-.835-3.385-1.264-1.128-.429-2.256-.869-3.385-1.264l-1.805-.779c-2.471-1.05-5.032-2.145-7.48-3.331a37.684 37.684 0 01-6.578-4.132 43.71 43.71 0 01-5.292-5.238 41.776 41.776 0 01-6.77-12.193 47.19 47.19 0 01-2.617-11.876 49.029 49.029 0 010-9.032l-1.873-.802v.113a61 61 0 00-.203 7.632 58.364 58.364 0 001.399 10.059 44.043 44.043 0 0010.154 19.192 159.223 159.223 0 01-18.357-12.418 32.704 32.704 0 01-3.667-3.387 35.817 35.817 0 01-2.888-3.918 30.642 30.642 0 01-3.791-8.501 35.31 35.31 0 01-1.422-8.377 38.888 38.888 0 01.18-7.27l-1.918-.655v.079c-.564 4.189-1.128 14.485 4.288 24.216a158.727 158.727 0 01-26.966-31.701l-1.546-.451s-.09.553-.192 1.558a161.415 161.415 0 0027.271 32.152c-8.327-3.646-17.432-5.351-25.364-6.548h-.158c.17.723.361 1.468.553 2.258l1.67.26c1.895.293 4.05.621 6.205 1.061 3.17.632 6.432 1.513 8.903 2.258a71.365 71.365 0 019.026 3.387 39.781 39.781 0 014.321 2.393 38.145 38.145 0 014.198 2.834 159.948 159.948 0 0018.639 12.509 110.71 110.71 0 00-22.78-2.732c-4.175-.192-8.203-.125-11.283 0-2.866 0-5.732.135-8.519.316h-.237c.463.688.96 1.377 1.456 2.054 7.89-.471 15.8-.494 23.694-.067 8.293.575 19.181 1.851 29.572 6.773 2.516 1.22 5.134 2.337 7.661 3.387l1.749.757c1.128.406 2.257.835 3.385 1.264 1.128.429 2.189.847 3.306 1.242-10.414-.463-20.603 1.129-28.512 2.574-4.366.79-8.462 1.66-11.836 2.518-3.373.858-5.325 1.366-6.059 1.603l-.383.124c.936.497 1.884.993 2.843 1.445l.936-.248c1.76-.463 4.4-1.175 7.47-1.863z" fill="#40495F"/><path d="M428.648 414.788c-3.148 1.129-7.47 10.059-16.383 13.232-10.899 3.861-22.216.474-26.334 1.93 4.118-1.456 10.764-11.233 21.663-15.105 8.913-3.161 17.906 1.061 21.054-.057z" fill="#44A1F2"/><path d="M184.915 428.595c-14.792-54.189 27.079-62.465-25.827-123.925-17.093-17.318-55.094-38.644-74.557-41.399 0 0-8.936 62.217 19.181 99.845s81.203 65.479 81.203 65.479z" fill="url(#paint4_linear)"/><path d="M182.094 427.06a134.67 134.67 0 002.821 1.535c-.214-.767-.406-1.535-.598-2.258-4.242-5.701-13.889-19.056-23.355-34.85-3.385-20.446 3.035-41.151 18.052-58.808l-1.128-2.099c-14.544 16.832-21.438 36.442-19.711 56.086-6.465-11.165-12.536-23.144-16.462-34.433 0-2.45.147-29.206 11.542-52.993l-1.771-1.479c-8.947 18.391-11.283 38.61-11.825 48.545-5.178-14.022-14.769-30.087-24.472-44.368l-.068-.147a77.935 77.935 0 01-8.022-31.147l-2.257-.994a79.646 79.646 0 004.322 23.64c-10.527-14.732-20.084-26.349-22.927-29.748-.587-.101-1.128-.203-1.704-.282 0 0-.079.531-.192 1.513 2.81 3.387 14.15 17.07 25.951 34.027l-.914-.52c-11.17-6.48-18.131-10.521-26.221-13.547v2.405c7.66 2.946 14.442 6.875 25.115 13.062l4.988 2.89c9.59 14.112 19.068 29.951 24.201 43.78-6.104-5.938-20.095-14.924-48.516-14.8.214.768.44 1.524.677 2.258 38.362.135 49.284 17.476 49.927 18.571 4.061 11.617 10.369 24.035 17.003 35.46a105.428 105.428 0 00-43.845-14.337c.756.835 1.534 1.659 2.256 2.483a101.787 101.787 0 0144.128 16.201c9.218 15.331 18.549 28.393 23.005 34.354z" fill="#394760"/><path d="M285.276 343.45a25.19 25.19 0 00-18.65 5.453.082.082 0 01-.041.022.08.08 0 01-.046-.005.079.079 0 01-.036-.029.081.081 0 01-.013-.045v-42.155h-42.548a.092.092 0 00-.07.049.098.098 0 00-.01.044c.001.015.005.03.013.043a25.251 25.251 0 01-6.179 37.208 25.214 25.214 0 01-26.907 0 25.252 25.252 0 01-6.179-37.208.079.079 0 00.022-.041.072.072 0 00-.004-.046.075.075 0 00-.03-.036.076.076 0 00-.044-.013h-42.469a.094.094 0 00-.06.022.091.091 0 00-.03.057v108.56a15.514 15.514 0 004.544 10.961 15.498 15.498 0 0010.959 4.54H271.85v-42.472a9.52 9.52 0 00-1.828.396c16.552 13.4 37.944.733 37.696-20.322a25.413 25.413 0 00-6.504-16.733 25.382 25.382 0 00-15.938-8.25z" fill="#CED8EA"/><path d="M289.699 343.619a25.131 25.131 0 00-18.639 5.453.083.083 0 01-.044.024.076.076 0 01-.084-.043.083.083 0 01-.008-.049V306.86h-42.547c-.068 0-.113.079-.068.125a25.11 25.11 0 015.642 16.753 25.276 25.276 0 01-3.172 11.411 25.243 25.243 0 01-19.13 12.802 25.241 25.241 0 01-11.751-1.425 25.244 25.244 0 01-15.52-17.004 25.263 25.263 0 014.723-22.537s0-.125-.068-.125h-42.514a.087.087 0 00-.063.019.105.105 0 00-.02.027.078.078 0 00-.007.033v108.515a15.52 15.52 0 004.541 10.969 15.496 15.496 0 0010.962 4.543h108.857a.078.078 0 00.034-.002.077.077 0 00.029-.017.06.06 0 00.02-.027.072.072 0 00.007-.033v-42.46a.076.076 0 01.008-.049.074.074 0 01.035-.035.082.082 0 01.093.016c16.552 13.401 41.34 1.276 41.092-19.813a25.42 25.42 0 00-6.513-16.685 25.39 25.39 0 00-15.895-8.242z" fill="url(#paint5_linear)"/><path d="M268.386 179.007v42.742c-17.184-14.09-43.383-.474-41.081 22.172a25.222 25.222 0 0015.48 20.758 25.207 25.207 0 0025.601-3.823l.271 45.869 44.003.169c-13.799-16.121-3.724-43.961 16.8-44.921 22.205-1.038 34.638 24.973 20.309 41.636h43.09V194.428a15.42 15.42 0 00-4.515-10.905 15.409 15.409 0 00-10.898-4.516h-109.06z" fill="#CED8EA"/><path d="M270.992 182.043v42.743c-17.184-14.09-43.382-.475-41.081 22.172a25.243 25.243 0 0015.48 20.758 25.204 25.204 0 0025.601-3.824v42.754h43.101c-13.81-16.11-2.584-40.642 17.94-41.636 22.204-1.038 34.638 24.973 20.365 41.636h43.09V197.465c0-4.09-1.624-8.013-4.515-10.905a15.406 15.406 0 00-10.898-4.517H270.992z" fill="url(#paint6_linear)"/><path d="M395.488 306.183v.429h-43.09c13.799-16.11 2.573-40.642-17.94-41.636a25.206 25.206 0 00-14.052 3.476 25.228 25.228 0 00-12.192 24.924 25.243 25.243 0 005.879 13.236h-43.101v42.325c15.514-12.724 38.904-2.97 41.059 16.674 2.504 22.749-23.785 36.556-41.059 22.399v42.742h109.083a15.412 15.412 0 0010.902-4.514 15.417 15.417 0 004.511-10.908V306.183z" fill="#394760"/><path d="M153.052 133.453c8.372 17.86 33.646 19.588 44.24 2.518l14.883 43.036 40.437-13.807c-17.037-10.579-16.461-36.206 1.422-44.583 20.715-9.72 42.266 11.922 34.447 32.853l40.426-13.796-35.214-106.765a15.417 15.417 0 00-7.773-8.844 15.405 15.405 0 00-11.746-.775L170.936 58.525l13.787 40.462c-20.929-7.813-41.43 13.716-31.671 34.466z" fill="#425AF3"/><path d="M156.832 135.689c8.372 17.86 33.657 19.587 44.24 2.517l13.799 40.462 40.404-13.841c-17.037-10.578-15.356-35.878 2.516-44.266 20.716-9.721 42.266 10.725 34.447 31.61l40.438-13.807-35.225-103.299a15.435 15.435 0 00-7.791-8.864 15.407 15.407 0 00-11.774-.755L174.648 60.693l13.776 40.53c-20.862-7.813-41.34 13.717-31.592 34.467z" fill="#394760"/></g><defs><linearGradient id="paint0_linear" x1="381.169" y1="415.375" x2="437.755" y2="354.852" gradientUnits="userSpaceOnUse"><stop stop-color="#4379F2"/><stop offset="1" stop-color="#439EF2"/></linearGradient><linearGradient id="paint1_linear" x1="38950" y1="55343.2" x2="22208.7" y2="53307.5" gradientUnits="userSpaceOnUse"><stop stop-color="#4379F2"/><stop offset="1" stop-color="#439EF2"/></linearGradient><linearGradient id="paint2_linear" x1="37416.2" y1="52856" x2="63016.9" y2="42816.4" gradientUnits="userSpaceOnUse"><stop stop-color="#4379F2"/><stop offset="1" stop-color="#439EF2"/></linearGradient><linearGradient id="paint3_linear" x1="12391.8" y1="27504.1" x2="6548.94" y2="30332.9" gradientUnits="userSpaceOnUse"><stop stop-color="#4379F2"/><stop offset="1" stop-color="#439EF2"/></linearGradient><linearGradient id="paint4_linear" x1="16555.5" y1="48612.2" x2="7469.37" y2="50624.5" gradientUnits="userSpaceOnUse"><stop stop-color="#4379F2"/><stop offset="1" stop-color="#439EF2"/></linearGradient><linearGradient id="paint5_linear" x1="147.749" y1="428.211" x2="268.839" y2="310.533" gradientUnits="userSpaceOnUse"><stop stop-color="#43A2F3"/><stop offset="1" stop-color="#73BCFF"/></linearGradient><linearGradient id="paint6_linear" x1="40366.7" y1="33849.6" x2="52316.1" y2="17770" gradientUnits="userSpaceOnUse"><stop stop-color="#43A2F3"/><stop offset="1" stop-color="#73BCFF"/></linearGradient><clipPath id="clip0"><path fill="#fff" d="M0 0h516v431H0z"/></clipPath></defs></svg>