<svg width="21" height="25" fill="none" xmlns="http://www.w3.org/2000/svg"><path d="M15 21.875v1.953c0 .647-.504 1.172-1.125 1.172H1.125C.504 25 0 24.475 0 23.828V5.86c0-.647.504-1.171 1.125-1.171H4.5V19.14c0 1.507 1.178 2.734 2.625 2.734H15zm0-16.797V0H7.125C6.504 0 6 .525 6 1.172V19.14c0 .647.504 1.172 1.125 1.172h12.75c.621 0 1.125-.525 1.125-1.172V6.25h-4.875C15.506 6.25 15 5.723 15 5.078zm5.67-1.515L17.58.343A1.103 1.103 0 0016.784 0H16.5v4.688H21v-.296c0-.311-.119-.61-.33-.829z" fill="#99CAFF"/></svg>