<svg width="2120" height="923" fill="none" xmlns="http://www.w3.org/2000/svg"><mask id="a" maskUnits="userSpaceOnUse" x="0" y="0" width="2120" height="923"><path d="M1.025 272.871c-1.5-91 48.38-167.77 127.975-209.87C305.363-30.286 416.004 18.838 605 13.5c354-10 655-24.487 847 0S1895.07-6.987 1984 53c88.93 59.988 135.52 134.87 135.52 265.37 0 162.223-59.06 523.367-289.52 486.63-436-69.5-557.5 212-756 82.5-250.257-163.265-456.906-16.617-609.406-67.117-152.5-50.5-175.585-209.302-219.5-262-92.5-111-241.696-141.512-244.07-285.512z" fill="#FFF"/></mask><g mask="url(#a)"><path d="M2234.57-20.117H-1.406v964H2234.57v-964z" fill="url(#paint0_linear)"/><path opacity=".2" d="M-1.406 586.811s560.504-31.839 1150.806-31.839c590.3 0 1085.19 31.839 1085.19 31.839v357.072H-1.406V586.811z" fill="#fff"/><path opacity=".1" d="M405.015 569.001c207.303-7.283 472.686-13.93 744.365-13.93 68.71 0 136.16.418 201.65 1.194 24.75-5.512 44.47-12.815 56.78-21.232a149.401 149.401 0 0037.47 22.566c77.91 1.293 152.49 3.024 222.52 4.994 3.12-1.134 6.19-2.288 9.16-3.522 4.18 1.453 8.64 2.826 13.3 4.159a20398.74 20398.74 0 01237.02 8.298 319.546 319.546 0 0053.6-13.611c8.43 7.582 20.22 13.631 34.04 17.412 19.08.856 37.11 1.711 53.98 2.527 34.38-5.691 59.65-24.934 59.65-47.758 0-24.277-28.56-44.475-66.22-48.694a46.012 46.012 0 00-6.95-17.372 46.05 46.05 0 00-49.46-19.242 75.961 75.961 0 00-16.89-28.635 23.614 23.614 0 001.77-8.975 23.89 23.89 0 00-4.61-14.095c-3-4.09-7.22-7.121-12.06-8.654a23.91 23.91 0 00-26.75 8.979 75.878 75.878 0 00-49.43 7.523 75.714 75.714 0 00-33.98 36.633 23.685 23.685 0 00-9.29-1.87 23.94 23.94 0 00-16.9 6.994 23.877 23.877 0 00-7 16.885c0 .791.04 1.581.12 2.368h-3.64c-10.66 0-21.12.259-31.31.736a19.054 19.054 0 00-3.79-7.904 18.982 18.982 0 00-6.92-5.382 19.118 19.118 0 00-17.06.571 43.465 43.465 0 00-31.39-5.771 19.03 19.03 0 00-11.67-8.013 19.067 19.067 0 00-13.98 2.242c-1.42-1.055-2.87-1.99-4.38-3.084a31.694 31.694 0 001.98-14.745 31.777 31.777 0 00-4.96-14.028 31.803 31.803 0 00-25.11-14.409c-5.18-32.654-38.14-57.867-78.06-57.867a90.608 90.608 0 00-30.73 5.293 14.457 14.457 0 00-18.36-3.442 14.475 14.475 0 00-6.42 7.593 14.45 14.45 0 00.02 9.938 69.387 69.387 0 00-14.52 16.775c-4.24-.9-8.57-1.354-12.9-1.353-23.59 0-43.42 13.253-49.46 31.321a17.926 17.926 0 00-6.61-1.253c-2.76-.008-5.49.611-7.98 1.811a18.212 18.212 0 00-9.88 12.503c-.59 2.695-.56 5.49.09 8.172a171.506 171.506 0 00-13 6.388 14.906 14.906 0 00-10.43-4.261c-3.9 0-7.65 1.53-10.43 4.261a66.777 66.777 0 00-19.06-13.93c.1-.758.16-1.523.16-2.288a18.542 18.542 0 00-4.73-12.441 18.581 18.581 0 00-11.85-6.081c-4.57-.494-9.15.718-12.88 3.403a18.593 18.593 0 00-7.29 11.139 66.439 66.439 0 00-43.82 23.879 18.156 18.156 0 00-16.35 2.547 18.122 18.122 0 00-6.59 9.074 65.798 65.798 0 00-32.93 11.343 17.148 17.148 0 00-7.92-8.247 17.199 17.199 0 00-11.35-1.451 17.196 17.196 0 00-9.75 5.988 17.237 17.237 0 00-3.82 10.774v.259c-6.73.199-13.33.477-19.92.875a17.187 17.187 0 00-13.36-6.368c-1.94.007-3.87.336-5.7.975a28.841 28.841 0 00-11.62-7.156 28.865 28.865 0 00-26.16 4.325 28.948 28.948 0 00-8.69 10.513c-2.08-.851-4.3-1.29-6.55-1.294-3.75.003-7.4 1.235-10.39 3.506a17.166 17.166 0 00-6.14 9.07 168.96 168.96 0 00-34.36 13.054 250.827 250.827 0 00-37.27-2.706c-26.81 0-51.244 3.98-69.848 10.567a19.155 19.155 0 00-5.616-2.09 12.372 12.372 0 00-4.869-13.383 12.393 12.393 0 00-14.252.051 30.923 30.923 0 00-39.549-.887 30.869 30.869 0 00-8.772 11.135 198.718 198.718 0 00-13.345-3.821 20.091 20.091 0 00-6.712-12.389 20.127 20.127 0 00-13.205-4.943 20.464 20.464 0 00-5.199.696 9.553 9.553 0 001.434-5.014 9.686 9.686 0 00-7.187-9.414 9.704 9.704 0 00-10.938 4.558 79.044 79.044 0 00-33.661-6.964h-.179a13.921 13.921 0 00-4.726-8.587 13.947 13.947 0 00-9.216-3.353 12.57 12.57 0 00-2.131.179 34.964 34.964 0 00-33.722-12.398 34.955 34.955 0 00-16.728 8.22 34.916 34.916 0 00-10.12 15.64 11.925 11.925 0 00-1.195 5.134v.259c0 .637-.179 1.273-.239 1.99a138.9 138.9 0 00-8.824.716c-3.665-11.939-16.452-20.775-31.689-20.775-1.095 0-2.171 0-3.246.14a16.839 16.839 0 00-11.182-13.135 16.86 16.86 0 00-16.882 3.583 110.78 110.78 0 00-21.292-10.626 29.74 29.74 0 00-6.905-17.138 29.788 29.788 0 00-15.699-9.761 29.805 29.805 0 00-18.44 1.379 29.774 29.774 0 00-14.069 11.988 29.343 29.343 0 00-4.421-.338c-9.302 0-17.209 4.477-20.376 10.805-23.344 6.627-42.823 19.641-55.073 36.376a11.947 11.947 0 00-5.868-4.62 11.953 11.953 0 00-13.616 4.007 11.93 11.93 0 00-2.425 7.06c.002.729.075 1.455.219 2.169-14.062 1.294-25.475 9.671-28.92 20.696a40.491 40.491 0 00-11.075-10.547 16.825 16.825 0 00-3.335-9.543 16.848 16.848 0 00-8.204-5.914 16.856 16.856 0 00-18.497 5.507 75.322 75.322 0 00-7.688-.378c-17.587 0-33.183 5.632-42.982 14.328a12.898 12.898 0 00-18.236-1.11 12.868 12.868 0 00-3.674 5.587 740.38 740.38 0 00-18.603 1.174v-1.114a14.893 14.893 0 00-2.378-8.045 14.93 14.93 0 00-22.3-3.198 42.856 42.856 0 00-15.193-11.672 42.887 42.887 0 00-18.766-3.889h-.1c-3.047-8.06-12.07-13.93-22.766-13.93a28.384 28.384 0 00-8.106 1.194 10.918 10.918 0 00-21.531 0 165.808 165.808 0 00-17.17-8.855 12.739 12.739 0 001.096-5.174c0-3.422-1.359-6.704-3.779-9.125a12.939 12.939 0 00-9.128-3.79c-.546 0-1.092.04-1.633.12a35.343 35.343 0 00-10.52-16.965 35.385 35.385 0 00-18.042-8.566c-19.221-3.263-37.326 8.975-40.473 27.362-6.095.119-12.09.477-17.926 1.114a7.856 7.856 0 00-4.242-6.29 7.878 7.878 0 00-7.589.221 29.895 29.895 0 00-49.402-3.174 29.832 29.832 0 00-6.248 18.038c.02 1.333.126 2.662.319 3.98a9.61 9.61 0 00-1.315 0 10.927 10.927 0 00-7.75 3.187 10.905 10.905 0 00-3.204 7.738 10.658 10.658 0 00.537 3.383 143.33 143.33 0 00-14.48 10.666v129.982s186.828-17.91 383.595-17.91c7.668 0 15.257 0 22.826.1z" fill="#fff"/><path opacity=".2" d="M348.508 562.315a12.894 12.894 0 008.226 2.826 12.292 12.292 0 0010.337-4.995c10.377 2.985 30.076 4.995 52.663 4.995 28.522 0 52.403-3.204 58.797-7.502a24.189 24.189 0 007.668 1.233c11.951 0 21.491-8.298 21.91-18.645a32.77 32.77 0 0014.221-6.328 40.356 40.356 0 0025.176 8.815 42.053 42.053 0 004.501-.278c14.401 7.76 33.86 12.556 55.411 12.556 25.077 0 47.464-6.487 62.143-16.656 8.366 7.403 22.009 12.218 37.446 12.218 15.436 0 29.099-4.815 37.445-12.198a18.293 18.293 0 0027.729 3.054 18.268 18.268 0 005.215-9.024 18.257 18.257 0 00-6.745-18.805 18.298 18.298 0 00-19.945-1.392c-5.677-10.845-21.113-18.865-39.736-19.9a23.867 23.867 0 00-5.973-11.829 23.92 23.92 0 00-35.695.745 76.361 76.361 0 00-9.859-5.631 26.743 26.743 0 00-9.764-12.968 26.777 26.777 0 00-15.472-4.941 27.314 27.314 0 00-5.975.696 41.108 41.108 0 00-15.065-23.904 41.173 41.173 0 00-26.948-8.549 41.172 41.172 0 00-26.108 10.841 41.104 41.104 0 00-12.944 25.114 40.46 40.46 0 00-22.666 7.192 40.396 40.396 0 00-14.699 18.677 34.987 34.987 0 00-8.127-.975c-17.109 0-30.972 12.079-30.972 26.984a23.864 23.864 0 002.47 10.586 18.516 18.516 0 00-8.664 15.084h-.897c-5.975 0-11.014 3.204-12.329 7.482-9.162-.915-19.917-1.433-31.41-1.433-22.587 0-42.285 1.99-52.662 4.995a12.296 12.296 0 00-10.238-4.995 12.876 12.876 0 00-8.604 3.144 25.11 25.11 0 00-14.222-8.139 10.456 10.456 0 00-3.51-7.059 10.48 10.48 0 00-7.444-2.612 11.982 11.982 0 00-3.605.558c-3.984-6.925-11.174-12.975-20.715-17.492.02-.218.02-.438 0-.656a6.506 6.506 0 00-6.951-5.97 7.826 7.826 0 00-3.446.796c-2.111-9.532-11.333-16.696-22.407-16.696a23.236 23.236 0 00-19.918 10.726 14.914 14.914 0 00-4.88-.796c-5.975 0-10.835 3.244-11.751 7.502-.717.179-1.434.378-2.131.597a6.914 6.914 0 00-11.951 4.497 57.784 57.784 0 00-12.966 8.258 90.997 90.997 0 00-10.955-6.507 3.54 3.54 0 000-.437c0-3.695-1.469-7.238-4.084-9.85a13.95 13.95 0 00-9.859-4.08 13.66 13.66 0 00-4.959.935 25.866 25.866 0 00-7.887-12.342 25.912 25.912 0 00-27.832-3.968 25.881 25.881 0 00-11.028 9.644 15.932 15.932 0 00-7.647-6.917 15.948 15.948 0 00-18.899 4.884 15.91 15.91 0 00-3.33 9.754v.637a144.388 144.388 0 00-18.385 4.596 59.411 59.411 0 00-6.194-8.536 9.946 9.946 0 00.697-3.642c0-7.144-7.569-12.914-16.89-12.914a22.295 22.295 0 00-5.358.656c-1.992-9.392-12.648-16.556-25.455-16.556-13.783 0-25.016 8.318-25.753 18.765v94.601s139.205-13.312 303.844-16.954c4.362 4.736 12.409 7.96 21.691 8.099l4.899-.179c8.665-.916 15.934-4.557 19.42-9.492zm1843.022-83.537a19.481 19.481 0 00-15.91 1.97 19.497 19.497 0 00-5.95 5.644 19.41 19.41 0 00-3.09 7.589 40.869 40.869 0 00-9.33-1.055c-8.76 0-16.41 2.647-20.61 6.587a15.047 15.047 0 00-6.07-5.175 15.016 15.016 0 00-15.3 1.529 14.941 14.941 0 00-4.92 6.272 13.362 13.362 0 00-18.39.936 38.935 38.935 0 00-14.46-18.375 39.02 39.02 0 00-22.38-6.798c-20.6 0-37.43 15.342-38.9 34.784a12 12 0 00-6.16-1.751 11.962 11.962 0 00-10.05 5.586 11.946 11.946 0 00-.68 11.472 11.953 11.953 0 0020.01 2.483 38.541 38.541 0 0021.1 19.72c8.73.411 17.26.836 25.57 1.274a39.853 39.853 0 0010.66-4.756 20.934 20.934 0 002.19 5.432c69.25 3.861 121.32 8.557 143.66 10.726 6.2-4.477 10.4-9.631 11.95-15.163v-10.447a26.32 26.32 0 00-7.36-11.363c2.48-.059 4.95-.386 7.36-.975v-73.01a33.762 33.762 0 00-8.2-1.035 36.342 36.342 0 00-34.74 27.899z" fill="#fff"/><path d="M1116.59 473.385c-29.87-7.084-63.35-56.593-98.77-16.516-35.411 40.077-137.529 20.595-240.862 76.094l46.787 24.954c105.165-1.811 214.875-2.925 325.635-2.925 76.26 0 150.94.517 223.18 1.452-14.66-11.501-38.86-22.187-78.54-23.481-89.71-2.925-147.53-52.494-177.43-59.578z" fill="url(#paint1_linear)"/><path d="M1850.54 482.22c-118.63-58.364-100.92-17.67-178.82 17.691-77.9 35.361-141.63-30.068-208.92 30.068l428.55 40.037 201.73-40.037s-123.93 10.626-242.54-47.759z" fill="url(#paint2_linear)"/><path opacity=".2" d="M2034.84 572.464c.25-4.254-.79-8.484-3-12.131a20.993 20.993 0 00-9.35-8.293 21.075 21.075 0 00-12.41-1.529c-4.2.758-8.07 2.772-11.09 5.774-.69-.364-1.44-.6-2.21-.696a6.511 6.511 0 00-6.95 4.597 83.878 83.878 0 00-7.02-.219 5.77 5.77 0 00-1.79-3 5.838 5.838 0 00-3.2-1.418 5.719 5.719 0 00-2.67.338 8.252 8.252 0 00-3.15-2.656 8.242 8.242 0 00-7.96.443 8.233 8.233 0 00-2.84 2.99 49.796 49.796 0 00-13.94-3.503h-.78a7.664 7.664 0 00-2.38-4.049 7.692 7.692 0 00-4.29-1.92c-.57-.07-1.16-.07-1.73 0a16.93 16.93 0 00-3.76-6.185 16.839 16.839 0 00-6.02-4.035 16.84 16.84 0 00-7.15-1.139c-2.44.142-4.82.813-6.97 1.966a6.843 6.843 0 00-10.54-.378 84.567 84.567 0 00-27.48-7.741 90.48 90.48 0 00-5.04-.438 5.21 5.21 0 00-1.8-2.698 5.149 5.149 0 00-3.06-1.082 8.638 8.638 0 00-2.74-3.104 8.514 8.514 0 00-3.88-1.453c-.51-.05-1.03-.05-1.55 0a18.766 18.766 0 00-6.01-8.487 18.761 18.761 0 00-9.61-3.99 18.587 18.587 0 00-7.8.776 30.139 30.139 0 00-10.06-14.338 30.207 30.207 0 00-33.45-2.526 30.146 30.146 0 00-12.1 12.665c-.4 0-.78-.199-1.18-.259a9.956 9.956 0 00-6.63 1.672 18.328 18.328 0 00-7.12-6.737 18.304 18.304 0 00-25.19 8.568c-3.46-.1-6.89-.12-10.26 0-1.89-2.965-7.13-5.512-13.54-6.249a27.94 27.94 0 00-7.57.14 25.631 25.631 0 00-7.89-6.528 25.79 25.79 0 00-9.82-2.926 25.76 25.76 0 00-10.19 1.142 25.762 25.762 0 00-8.93 5.028 38.912 38.912 0 00-20.51-9.412c.14-3.024-.87-5.988-2.84-8.293a11.947 11.947 0 00-7.74-4.124 11.814 11.814 0 00-8.74 2.487 51.684 51.684 0 00-17.09-14.38 51.724 51.724 0 00-43.57-2.031 51.577 51.577 0 00-18.35 12.73 7.722 7.722 0 00-1.72-.458 7.687 7.687 0 00-5.17 1.268 7.665 7.665 0 00-3.09 4.324c-.44 0-.9-.179-1.36-.219-4.77-.548-9.59.529-13.68 3.057a21.29 21.29 0 00-8.84 10.872c-7.67-.396-15.35-.396-23.01 0a9.692 9.692 0 00-8.56-9.094 9.878 9.878 0 00-3.99.398 22.739 22.739 0 00-16.41-9.949 22.37 22.37 0 00-12.2 1.881 22.3 22.3 0 00-9.33 8.068c-6.73-2.016-13.88-3.86-21.43-5.532a26.247 26.247 0 00-8.44-10.577 26.265 26.265 0 00-12.6-4.964c-1.4-.142-2.81-.175-4.22-.099a35.585 35.585 0 00-10.72-17.704 35.663 35.663 0 00-39.23-5.615 35.627 35.627 0 00-15.26 13.986 27.59 27.59 0 00-5.34-1.134c-6.48-.72-13.02.82-18.5 4.359a28.258 28.258 0 00-11.57 15.062c-5.69.84-11.32 2.009-16.87 3.503a7.021 7.021 0 00-1.69-4.301 7.013 7.013 0 00-4.01-2.306 6.188 6.188 0 00-2.9.441c-.92.378-1.74.97-2.38 1.728a16.475 16.475 0 00-7.99-3.674 16.528 16.528 0 00-15.76 6.264 16.548 16.548 0 00-3.28 8.156c-.73-.14-1.47-.279-2.21-.359-19.34-2.208-36.51 8.935-38.32 24.894-1.81 15.96 12.29 30.765 31.67 32.934 17.63 1.99 33.38-7.084 37.43-20.775 21.23 12.755 58.81 23.879 102.41 28.814 56.51 6.447 105.57.557 122.82-13.233a248.88 248.88 0 0032.98 5.97c8.72.995 17.13 1.512 25.06 1.651a51.91 51.91 0 0028.62 13.991 51.987 51.987 0 0031.41-5.334 39.163 39.163 0 0010.63 9.213l37.85 1.035a40 40 0 006.49-4.279 78.586 78.586 0 007.01 4.657c144.42 4.099 269.21 9.213 363.96 13.671a6.768 6.768 0 00-2.14-2.683 6.709 6.709 0 00-3.18-1.277zm36.03 5.412l2.75.14a6.29 6.29 0 00-.84-.14 7.63 7.63 0 00-1.91 0zm47.82-7.86a7.434 7.434 0 00-3.64.537 3.52 3.52 0 00-1.07-.852 3.42 3.42 0 00-1.31-.375 3.467 3.467 0 00-2.54.829 29.354 29.354 0 00-7.05-1.87 7.568 7.568 0 00-2.62-4.14 7.567 7.567 0 00-4.6-1.68 7.58 7.58 0 00-7.46 5.501h-.12a2.93 2.93 0 00-2.16.619c-.3.241-.56.538-.74.876-.19.338-.31.709-.35 1.092a2.45 2.45 0 000 .935 26.127 26.127 0 00-7.96 6.746c17.02.836 32.79 1.632 47.32 2.388.54-1.055.81-2.226.79-3.409a7.286 7.286 0 00-.89-3.385 7.382 7.382 0 00-2.36-2.584 7.34 7.34 0 00-3.3-1.188l.06-.04z" fill="#fff"/><path d="M253.899 574.752c183.522-7.542 447.71-16.337 730.84-18.984-32.943-8.218-73.098-16.894-122.115-25.869-425.84-50.226-607.769-23.819-608.725 44.853z" fill="url(#paint3_linear)"/><path d="M1341.23 495.792c-256.13-5.97-394.573 45.768-394.573 45.768l27.426 14.387c57.757-.557 116.397-.876 175.277-.876 210.87 0 409.55 3.98 577.85 9.273 0 0-129.84-62.662-385.98-68.552z" fill="url(#paint4_linear)"/><path d="M399.637 568.026l.458 1.154c191.708-6.766 433.848-13.113 684.985-14.069-300.972-35.38-538.49-27.779-685.443 12.915z" fill="url(#paint5_linear)"/><path d="M2234.57 586.811v-85.925c-142.01 6.945-287.05 26.068-406.81 66.742 246.7 8.875 406.81 19.183 406.81 19.183z" fill="url(#paint6_linear)"/><path d="M-1.406 524.427v62.384s79.671-4.517 210.63-10.149c18.225-1.691 32.107-3.124 39.039-4.139-48.361-35.779-166.89-52.116-249.669-48.096z" fill="url(#paint7_linear)"/><path d="M-1.406 571.329v15.482s174.24-9.95 430.74-18.626c-105.325-40.813-338.88-16.834-430.74 3.144z" fill="url(#paint8_linear)"/><path d="M1401.42 556.843c190.61 2.726 363 8.138 500.85 13.611-19.08-4.696-43.82-9.85-75.93-15.462-165.87-29.113-318.92-25.889-424.92 1.851z" fill="url(#paint9_linear)"/><path d="M88.463 582.473c14.918-.736 31.51-1.512 49.655-2.348l-33.621 142.24 17.926 2.965 35.254-146.101c24.12-1.094 50.611-2.248 79.213-3.442l-33.144 140.827 35.095 2.965 35.056-145.265a25015.01 25015.01 0 0195.784-3.681l-32.705 138.359 17.926 2.965 34.258-142.021 10.557-.378-35.195 148.588 35.115 2.965 36.868-152.886c28.641-.982 58.232-1.93 88.773-2.846l-22.945 97.248 51.029 2.965 24.718-101.745c22.573-.637 45.585-1.253 69.034-1.85l-33.063 140.031 17.926 2.965 34.597-143.454 18.623-.458-34.139 144.409 97.378 5.97 36.907-152.508c22.427-.424 45.054-.822 67.88-1.194l-22.667 96.074 51.029 2.945 24.141-99.815 20.395-.259-34.796 147.255 26.471 1.472 35.951-149.005c23.304-.252 46.743-.471 70.313-.657L990.495 697.59l17.925 2.965 34.98-144.946c19.38-.119 38.83-.212 58.34-.279l-33.37 141.504 26.47 1.492 34.5-143.035h20.04c21.55 0 42.96.039 64.23.119l-33.18 140.389 97.4 5.97 35.13-145.663c32.79.319 65.11.717 96.98 1.194l-31.87 134.659 36.67 4.696 33.48-138.778c22.91.385 45.48.81 67.72 1.274l-24.02 101.645 97.38 5.97 25.42-105.346c18.77.477 37.26.975 55.47 1.492l-32.25 136.389 17.93 2.965 33.74-138.797a20535.32 20535.32 0 01221.08 7.641l-32.58 137.843 17.92 2.965 33.86-140.031 34.82 1.472-32.07 135.594 41.27 6.109 33.74-139.812c22.27.994 43.16 1.989 62.56 2.925l-30.93 130.778 97.4 5.969 31.87-131.693c41.82 2.289 65.23 3.781 66.28 3.841v-.259s-494.89-31.839-1085.19-31.839c-590.303 0-1151.046 31.839-1151.046 31.839v140.747l54.077 3.304 35.792-148.389z" fill="url(#paint10_linear)"/><path d="M736.559 301.065c15.394 0 27.873-12.467 27.873-27.847 0-15.379-12.479-27.847-27.873-27.847-15.394 0-27.873 12.468-27.873 27.847 0 15.38 12.479 27.847 27.873 27.847z" fill="url(#paint11_radial)"/><path d="M736.559 287.806c8.064 0 14.601-6.531 14.601-14.588 0-8.057-6.537-14.588-14.601-14.588s-14.601 6.531-14.601 14.588c0 8.057 6.537 14.588 14.601 14.588z" fill="#FFFFE6"/><path opacity=".05" d="M699.403 340.87c12.457 0 22.554-10.094 22.554-22.546s-10.097-22.546-22.554-22.546c-12.456 0-22.553 10.094-22.553 22.546s10.097 22.546 22.553 22.546z" fill="#FFFFE6"/><path opacity=".05" d="M676.85 381.977c19.786 0 35.825-16.031 35.825-35.806s-16.039-35.806-35.825-35.806-35.826 16.031-35.826 35.806 16.04 35.806 35.826 35.806z" fill="#FFFFE6"/><path d="M2071.59 393.112c2.88-.707 5.91-.583 8.72.358 3.02.994 5.54 3.091 7.07 5.87l-2.15.577c-.02-3.002.78-5.954 2.31-8.537a9.22 9.22 0 017.03-4.537 11.089 11.089 0 00-5.49 5.453 18.345 18.345 0 00-1.56 7.621v4.597l-2.17-3.98a12.61 12.61 0 00-5.72-5.293 25.398 25.398 0 00-8.04-2.129zm-889.01 120.569a9.374 9.374 0 00-4.68.179 7.745 7.745 0 00-3.72 2.985l.73.179a6.228 6.228 0 00-1.43-3.562 4.338 4.338 0 00-1.65-.974 4.328 4.328 0 00-1.92-.16 4.66 4.66 0 013.11 1.532c.66.975 1.04 2.11 1.1 3.284v.995l.61-.836a7.718 7.718 0 013.33-2.786c1.44-.568 2.97-.852 4.52-.836zm-382.677-17.113a13.416 13.416 0 011.992-1.075 7.638 7.638 0 012.33-.517 4.795 4.795 0 012.39.458c.712.367 1.381.815 1.992 1.333l-.638.318a9.71 9.71 0 010-2.169 4.102 4.102 0 011.215-1.99c.526-.5 1.1-.946 1.713-1.333a19.45 19.45 0 011.873-1.055c-.538.458-1.116.876-1.634 1.353a13.23 13.23 0 00-1.513 1.453 3.985 3.985 0 00-.897 1.692 16.18 16.18 0 000 2.089v.776l-.637-.478a11.017 11.017 0 00-1.813-1.293 4.462 4.462 0 00-1.991-.517 7.498 7.498 0 00-2.191.258c-.379 0-.737.199-1.096.299l-1.095.398zm-228.555-169.86c.771.036 1.538.143 2.29.318.775.195 1.515.51 2.191.935a4.948 4.948 0 011.673 1.771c.338.713.599 1.461.777 2.229l-.697-.139c.359-.63.779-1.224 1.255-1.771a4.326 4.326 0 012.131-.876 11.621 11.621 0 012.191 0c.714.039 1.426.119 2.131.239-.717 0-1.434 0-2.131.139-.672.05-1.338.156-1.992.319a3.62 3.62 0 00-1.733.836 15.343 15.343 0 00-1.135 1.731l-.478.617-.239-.757a13.156 13.156 0 00-.697-2.109 4.823 4.823 0 00-1.355-1.612 7.622 7.622 0 00-1.991-1.074c-.339-.159-.717-.259-1.076-.398l-1.115-.398zM357.113 482.22a18.657 18.657 0 013.465-.577 12.1 12.1 0 013.566.359 7.587 7.587 0 013.206 1.81 14.55 14.55 0 012.112 2.806l-1.076.139a16.567 16.567 0 011.036-3.104 6.14 6.14 0 012.689-2.169 16.494 16.494 0 013.107-1.094c1.056-.239 2.131-.458 3.207-.597-1.016.378-1.992.716-3.028 1.134-.98.382-1.932.835-2.848 1.353a5.735 5.735 0 00-2.111 1.99 24.105 24.105 0 00-.897 2.985l-.378 1.074-.697-.935a16.738 16.738 0 00-1.992-2.706 7.169 7.169 0 00-2.669-1.711 11.056 11.056 0 00-3.266-.657c-.558 0-1.136 0-1.713-.1h-1.713zm293.965 5.294a16.63 16.63 0 00-2.968-.339 10.534 10.534 0 00-3.007.458 6.367 6.367 0 00-2.649 1.692 13.572 13.572 0 00-1.673 2.487h.916c-.253-.9-.594-1.773-1.016-2.607a5.185 5.185 0 00-2.35-1.771 14.944 14.944 0 00-2.689-.816 32.81 32.81 0 00-2.749-.378c.876.299 1.753.538 2.609.856a16.05 16.05 0 012.47 1.055c.758.358 1.41.906 1.892 1.592.348.822.641 1.666.877 2.527l.378.915.538-.856c.441-.849.961-1.655 1.554-2.407a5.967 5.967 0 012.19-1.572 9.807 9.807 0 012.749-.717c.478 0 .956 0 1.454-.139l1.474.02zm-130.859 17.909a13.958 13.958 0 017.509.298 10.655 10.655 0 015.975 4.876l-1.852.497a13.304 13.304 0 011.991-7.124 7.979 7.979 0 015.976-3.781 9.384 9.384 0 00-4.741 4.557 14.725 14.725 0 00-1.334 6.348v3.821l-1.853-3.343a10.752 10.752 0 00-4.939-4.398 22.622 22.622 0 00-6.732-1.751zm-343.003-45.669a36.304 36.304 0 0112.17.299 18.406 18.406 0 019.959 4.875l-3.008.497a9.954 9.954 0 013.227-7.104 15.326 15.326 0 019.839-3.78 14.138 14.138 0 00-7.688 4.537 10.224 10.224 0 00-2.171 6.347v3.821l-3.027-3.343a17.238 17.238 0 00-7.968-4.398 55.543 55.543 0 00-11.333-1.751zM481.3 493.782a9.339 9.339 0 014.68.179 7.767 7.767 0 013.725 2.985l-.717.179a6.23 6.23 0 011.434-3.562 4.29 4.29 0 013.565-1.134 4.665 4.665 0 00-3.127 1.532 6.26 6.26 0 00-1.075 3.283l-.12.995-.617-.835a7.713 7.713 0 00-3.307-2.786 12.136 12.136 0 00-4.441-.836zm462.21-278.53a12.91 12.91 0 00-2.311-.259 8.671 8.671 0 00-2.35.378 5.031 5.031 0 00-1.992 1.334 11.097 11.097 0 00-1.294 1.99h.717a11.403 11.403 0 00-.797-1.99 3.974 3.974 0 00-1.852-1.353 10.318 10.318 0 00-2.092-.617 19.924 19.924 0 00-2.151-.279c.697.219 1.375.398 1.992.657.687.203 1.354.47 1.992.796a3.99 3.99 0 011.474 1.214c.318.517.358 1.194.697 1.989l.298.717.419-.677a10.43 10.43 0 011.195-1.87 4.816 4.816 0 011.693-1.254 7.668 7.668 0 012.131-.557c.376-.066.755-.113 1.135-.139l1.096-.08zm149.04 111.456c-.77.036-1.55.143-2.31.318-.77.195-1.5.51-2.17.935a4.74 4.74 0 00-1.67 1.771c-.35.71-.61 1.458-.78 2.229l.7-.139c-.37-.63-.79-1.223-1.28-1.771a4.158 4.158 0 00-2.13-.876 11.4 11.4 0 00-2.17 0c-.72.041-1.44.12-2.15.239.72 0 1.44 0 2.15.139.67.048 1.34.155 1.99.319a3.6 3.6 0 011.74.836c.43.545.81 1.124 1.15 1.731l.46.617.24-.757c.19-.719.43-1.424.72-2.109.32-.635.78-1.186 1.35-1.612a6.97 6.97 0 011.99-1.074c.34-.159.7-.259 1.06-.398l1.11-.398zm174.32 135.613a18.022 18.022 0 00-3.44-.577c-1.2-.06-2.4.061-3.57.358a7.616 7.616 0 00-3.22 1.811c-.81.852-1.52 1.794-2.12 2.806l1.08.139a14.831 14.831 0 00-1.04-3.104 6.04 6.04 0 00-2.66-2.169c-1-.464-2.04-.831-3.11-1.094-1.08-.239-2.13-.458-3.21-.597 1.02.378 1.99.716 3.01 1.134.98.378 1.93.831 2.85 1.353.87.471 1.6 1.156 2.13 1.99.36.972.66 1.97.87 2.985l.4 1.074.68-.935c.58-.962 1.24-1.868 1.99-2.706a7.545 7.545 0 012.67-1.712c1.05-.382 2.15-.603 3.27-.656.58 0 1.13 0 1.71-.1h1.71zm-254.05 25.193c.98-.203 1.97-.317 2.97-.339 1.02.006 2.03.161 3.01.458 1.01.339 1.92.92 2.65 1.692.64.77 1.2 1.603 1.67 2.487h-.92c.24-.902.57-1.776 1-2.607a5.236 5.236 0 012.37-1.771c.87-.359 1.77-.632 2.69-.816.9-.159 1.81-.298 2.73-.378-.88.299-1.75.538-2.61.856-.85.29-1.67.642-2.47 1.055-.75.357-1.4.906-1.87 1.592-.35.822-.64 1.666-.88 2.527l-.38.915-.54-.856c-.44-.845-.96-1.65-1.55-2.407a6.283 6.283 0 00-2.21-1.572 9.508 9.508 0 00-2.73-.717c-.48 0-.97 0-1.45-.139l-1.48.02zm110.94-81.587a13.923 13.923 0 00-7.5.298 10.637 10.637 0 00-6.1 4.876l1.85.497c.02-2.514-.67-4.981-1.99-7.124a8.044 8.044 0 00-2.54-2.589 7.984 7.984 0 00-3.43-1.192 9.433 9.433 0 014.72 4.557 14.728 14.728 0 011.23 6.448v3.82l1.87-3.343a10.68 10.68 0 014.94-4.398 22.404 22.404 0 016.95-1.85zm353.8 54.882a15.71 15.71 0 00-8.72.358 12.545 12.545 0 00-7.07 5.87l2.15.577c.03-3.003-.77-5.957-2.31-8.536a9.228 9.228 0 00-2.97-3.114 9.175 9.175 0 00-4.06-1.423 11.067 11.067 0 015.5 5.452 18.495 18.495 0 011.55 7.621v4.597l2.15-3.98a12.586 12.586 0 015.74-5.273 25.192 25.192 0 018.04-2.149zm477.15-151.314c.63-.431 1.29-.798 1.99-1.095a8.286 8.286 0 012.31-.517c.83-.047 1.66.11 2.41.458.71.384 1.38.837 1.99 1.353l-.65.298a13.09 13.09 0 010-2.169c.2-.767.62-1.459 1.21-1.99.54-.501 1.12-.954 1.74-1.353.61-.378 1.23-.736 1.87-1.054l-1.66 1.353c-.53.455-1.03.947-1.49 1.472a4.061 4.061 0 00-.92 1.692c-.04.662-.04 1.327 0 1.99v.776l-.63-.458c-.57-.491-1.17-.931-1.82-1.313a4.993 4.993 0 00-1.99-.518 7.585 7.585 0 00-2.19.259c-.36 0-.71.219-1.09.318l-1.08.498zm-148.84 170.039a13.29 13.29 0 00-2.95-.338 9.965 9.965 0 00-3.03.457 6.435 6.435 0 00-2.73 1.692 14.58 14.58 0 00-1.67 2.507h.92c-.24-.901-.58-1.775-1-2.607-.6-.8-1.43-1.409-2.37-1.751-.86-.356-1.76-.629-2.67-.816a22.11 22.11 0 00-2.75-.378c.88.299 1.75.538 2.61.856a14.5 14.5 0 012.47 1.035 5.1 5.1 0 011.87 1.592c.36.82.65 1.664.88 2.527l.38.915.54-.855c.44-.845.97-1.644 1.57-2.388a5.995 5.995 0 012.19-1.592 9.474 9.474 0 012.73-.697c.48-.099.97-.099 1.45-.159h1.56zm-169.76-332.039a9.154 9.154 0 014.68.199 7.632 7.632 0 013.72 2.965l-.71.179a6.067 6.067 0 011.41-3.562 4.211 4.211 0 011.65-.972 4.248 4.248 0 011.92-.142 4.56 4.56 0 00-3.11 1.512 6.54 6.54 0 00-1.1 3.283v1.015l-.61-.836a7.767 7.767 0 00-3.33-2.805c-1.44-.557-2.98-.84-4.52-.836zm312.43 332.039c.96-.223 1.95-.336 2.94-.338a9.66 9.66 0 013.01.458c1.01.321 1.93.896 2.65 1.671a12.11 12.11 0 011.67 2.507h-.91c.25-.898.59-1.771 1.01-2.606a5.114 5.114 0 012.37-1.752c.87-.356 1.76-.629 2.67-.815a21.74 21.74 0 012.75-.378c-.88.298-1.75.537-2.61.855a14.5 14.5 0 00-2.47 1.035c-.78.356-1.47.904-1.99 1.592-.34.823-.64 1.667-.88 2.527l-.26 1.035-.53-.856a16.4 16.4 0 00-1.58-2.388 5.844 5.844 0 00-2.19-1.592 9.553 9.553 0 00-2.75-.696c-.45-.1-.95-.1-1.43-.159l-1.47-.1z" fill="#fff"/><path d="M558.481 489.762h-2.251v139.594h2.251V489.762z" fill="#394760"/><path d="M617.138 610.252h-60.55v1.871h60.55v-1.871z" fill="#394760"/><path d="M523.505 597.537l32.725 18.446V506.498l-32.725 91.039z" fill="#fff"/><path d="M556.23 615.983l-13.723-7.741 13.723-101.744v109.485z" fill="#F1F3F6"/><path d="M560.651 610.252s22.468-12.218 52.942 0c2.669-12.954 6.333-72.055-55.133-110.46 13.047 38.644 8.685 82.024 2.191 110.46z" fill="#fff"/><path d="M579.494 558.594c.736-31.978-21.034-58.802-21.034-58.802 13.047 38.644 8.685 82.024 2.191 110.46a84.162 84.162 0 0018.843-51.658z" fill="#F1F3F6"/><path d="M592.062 629.216l-14.819-12.298h-42.465l-11.273 12.298h68.557z" fill="#394760"/><path d="M504.504 644.837l131.317-16.755H505.44l-18.703 16.775a98.815 98.815 0 0117.767-.02z" fill="#F1F3F6"/><path d="M511.097 645.852c11.034 2.468 24.2-1.413 40.273-1.413 16.074 0 13.285 2.229 28.144 2.229 14.858 0 18.364-3.98 28.004-4.696a44.883 44.883 0 0112.17.716c10.676-5.472 16.034-13.77 16.034-14.606H505.44l-18.703 16.775a86.88 86.88 0 0124.36.995z" fill="#fff"/><path d="M584.155 638.529h8.286c.957 0 1.732-.77 1.732-1.721 0-.951-.775-1.721-1.732-1.721h-8.286c-.957 0-1.733.77-1.733 1.721 0 .951.776 1.721 1.733 1.721zm-16.97 0h8.285c.957 0 1.733-.77 1.733-1.721 0-.951-.776-1.721-1.733-1.721h-8.285c-.957 0-1.733.77-1.733 1.721 0 .951.776 1.721 1.733 1.721zm-16.99 0h8.286c.957 0 1.733-.77 1.733-1.721 0-.951-.776-1.721-1.733-1.721h-8.286c-.957 0-1.733.77-1.733 1.721 0 .951.776 1.721 1.733 1.721zm-16.99 0h8.286c.957 0 1.733-.77 1.733-1.721 0-.951-.776-1.721-1.733-1.721h-8.286c-.957 0-1.733.77-1.733 1.721 0 .951.776 1.721 1.733 1.721zm-16.99 0h8.286c.957 0 1.733-.77 1.733-1.721 0-.951-.776-1.721-1.733-1.721h-8.286c-.957 0-1.733.77-1.733 1.721 0 .951.776 1.721 1.733 1.721z" fill="#394760"/><path d="M558.46 491.414h26.312l-26.312 8.994v-8.994z" fill="#FF2D55"/><path d="M576.845 621.177h-38.999a1.712 1.712 0 100 3.423h38.999a1.711 1.711 0 100-3.423z" fill="#fff"/></g><defs><linearGradient id="paint0_linear" x1="1444.28" y1="-824.047" x2="1087.04" y2="580.402" gradientUnits="userSpaceOnUse"><stop stop-color="#4279F4"/><stop offset="1" stop-color="#42A0F4"/></linearGradient><linearGradient id="paint1_linear" x1="1067.78" y1="423.816" x2="1074.83" y2="546.456" gradientUnits="userSpaceOnUse"><stop stop-color="#425AF4"/><stop offset="1" stop-color="#48A2F3" stop-opacity=".95"/></linearGradient><linearGradient id="paint2_linear" x1="1770.55" y1="435.169" x2="1777.3" y2="558.531" gradientUnits="userSpaceOnUse"><stop stop-color="#425AF4"/><stop offset="1" stop-color="#48A2F3" stop-opacity=".95"/></linearGradient><linearGradient id="paint3_linear" x1="387.5" y1="587.5" x2="376.387" y2="503.028" gradientUnits="userSpaceOnUse"><stop stop-color="#425AF4"/><stop offset="1" stop-color="#48A2F3" stop-opacity=".95"/></linearGradient><linearGradient id="paint4_linear" x1="1342.5" y1="616.5" x2="1359.62" y2="496.733" gradientUnits="userSpaceOnUse"><stop stop-color="#425AF4"/><stop offset="1" stop-color="#48A2F3" stop-opacity=".95"/></linearGradient><linearGradient id="paint5_linear" x1="747.248" y1="596.874" x2="740.77" y2="527.382" gradientUnits="userSpaceOnUse"><stop stop-color="#425AF4"/><stop offset="1" stop-color="#48A2F3" stop-opacity=".95"/></linearGradient><linearGradient id="paint6_linear" x1="2034.07" y1="651.729" x2="2080.58" y2="515.489" gradientUnits="userSpaceOnUse"><stop stop-color="#425AF4"/><stop offset="1" stop-color="#48A2F3" stop-opacity=".95"/></linearGradient><linearGradient id="paint7_linear" x1="15695.2" y1="19705.8" x2="15648" y2="16671.9" gradientUnits="userSpaceOnUse"><stop stop-color="#425AF4"/><stop offset="1" stop-color="#48A2F3" stop-opacity=".95"/></linearGradient><linearGradient id="paint8_linear" x1="217.036" y1="617.715" x2="227.896" y2="546.965" gradientUnits="userSpaceOnUse"><stop stop-color="#425AF4"/><stop offset="1" stop-color="#48A2F3" stop-opacity=".95"/></linearGradient><linearGradient id="paint9_linear" x1="1655.41" y1="597.576" x2="1662.68" y2="534.863" gradientUnits="userSpaceOnUse"><stop stop-color="#425AF4"/><stop offset="1" stop-color="#48A2F3" stop-opacity=".95"/></linearGradient><linearGradient id="paint10_linear" x1="1110.14" y1="510.557" x2="1117.2" y2="671.523" gradientUnits="userSpaceOnUse"><stop stop-color="#7FBCF7"/><stop offset=".99" stop-color="#68B3F6"/></linearGradient><radialGradient id="paint11_radial" cx="0" cy="0" r="1" gradientUnits="userSpaceOnUse" gradientTransform="matrix(27.8731 0 0 27.8473 736.719 273.218)"><stop stop-color="#FFFFE6"/><stop offset=".93" stop-color="#FFFFE6" stop-opacity="0"/></radialGradient></defs></svg>