<svg width="445" height="293" fill="none" xmlns="http://www.w3.org/2000/svg"><path opacity=".4" d="M354.563 126.131c-3.713-2.275-12.27-.477-19.921 2.026a80.728 80.728 0 00-13.085-18.478c4.709-5.393 8.783-11.264 8.285-15.133-1.199-9.102-20.012-24.394-28.84-22.232-4.528 1.07-10.074 8.624-14.443 15.633a80.072 80.072 0 00-23.204-3.527c-1.381-7.623-3.577-15.61-6.995-18.205-7.312-5.393-30.561 1.434-35.134 9.353-2.128 3.664-.136 11.697 2.49 19.07a80.581 80.581 0 00-20.125 15.928c-7.131-3.8-15.439-7.395-19.74-6.144-8.738 2.504-17.567 25.191-14.149 33.656 1.449 3.618 7.946 6.713 14.738 9.103a81.764 81.764 0 00-2.038 20.139c-6.927.273-13.764 1.251-16.48 3.914-6.497 6.371-3.577 30.561 3.418 36.409 4.052 3.368 15.847 1.524 24.539-.501a79.274 79.274 0 009.486 12.835c-6.203 6.326-13.243 14.745-12.587 19.729 1.2 9.102 20.012 24.394 28.841 22.255 5.388-1.32 12.496-12.106 17.023-19.911a79.33 79.33 0 0023.612 4.414c1.29 8.238 3.554 17.295 7.47 19.593 7.855 4.551 31.444-1.001 35.157-9.353 1.743-3.868-.272-11.924-2.83-19.228a80.22 80.22 0 0020.714-15.406c7.696 4.415 18.11 9.535 23.158 8.078 8.761-2.526 17.59-25.19 14.171-33.655-1.63-4.074-9.575-7.487-17.182-9.899a81.51 81.51 0 002.739-18.433c7.765-1.046 16.028-2.935 18.722-6.326 5.682-7.145-.159-30.766-7.81-35.704zm-80.681 80.602a42.226 42.226 0 01-24.616-.894 42.436 42.436 0 01-19.972-14.491 42.831 42.831 0 01-2.919-47.297 42.519 42.519 0 0118.038-16.861 42.237 42.237 0 0124.317-3.945 42.333 42.333 0 0122.399 10.302 42.685 42.685 0 0112.929 21.075 42.84 42.84 0 01-4.355 32.336c-5.659 9.772-14.947 16.885-25.821 19.775z" fill="#CFD9EB"/><path opacity=".22" d="M440.824 70.878c-1.221-.772-4.049-.139-6.583.68a26.38 26.38 0 00-4.326-6.073c1.545-1.777 2.92-3.708 2.75-4.975-.402-2.982-6.613-8.02-9.534-7.309-1.545.356-3.337 2.843-4.774 5.161a26.442 26.442 0 00-7.726-1.159c-.448-2.518-1.175-5.145-2.318-5.98-2.41-1.777-10.09.464-11.604 3.09-.711 1.221 0 3.88.834 6.305a26.547 26.547 0 00-6.644 5.238c-2.364-1.251-5.099-2.426-6.521-2.024-2.889.834-5.81 8.282-4.635 11.048.479 1.205 2.626 2.225 4.867 2.998a26.125 26.125 0 00-.649 6.613c-2.302.077-4.636.402-5.47 1.283-2.148 2.101-1.174 10.043 1.128 11.944 1.344 1.112 5.223.51 8.112-.155a26.268 26.268 0 003.091 4.203c-2.056 2.086-4.389 4.852-4.172 6.49.401 2.982 6.613 8.02 9.533 7.309 1.777-.417 4.126-3.971 5.625-6.536a26.432 26.432 0 007.726 1.452c.417 2.704 1.159 5.686 2.457 6.444 2.595 1.545 10.383-.34 11.619-3.091.572-1.282-.092-3.925-.942-6.335a26.441 26.441 0 006.969-5.037c2.549 1.437 6.01 3.09 7.725 2.657 2.89-.834 5.81-8.282 4.636-11.063-.541-1.329-3.183-2.457-5.702-3.245.552-1.985.863-4.029.927-6.088 2.565-.34 5.3-.958 6.181-2.07 1.885-2.38-.046-10.153-2.58-11.775zm-26.639 26.5a14.017 14.017 0 01-15.697-20.596 14.016 14.016 0 0125.663 3.46 14.03 14.03 0 01-9.966 17.136zm.402 64.07c-.219-.974-1.91-2.046-3.548-2.885.522-1.644.809-3.354.851-5.079 1.623-.113 3.239-.385 3.774-1.087 1.261-1.652.686-7.148-1.088-8.228-.929-.581-3.02-.242-4.854.188a18.264 18.264 0 00-3.209-4.341c1.011-1.449 1.939-3.087 1.788-4.053-.31-2.046-5.156-4.704-7.179-4.161-.944.249-1.894 1.895-2.672 3.487a18.353 18.353 0 00-5.804-.688c-.544-1.766-1.307-3.676-2.198-4.175-1.819-1.004-6.884 1.207-7.661 3.131-.354.823.197 2.37.914 3.843a18.067 18.067 0 00-3.547 2.912c-1.162-1.087-2.461-2.068-3.299-2.046-2.076-.023-5.479 4.332-5.282 6.385.113 1.2 2.303 2.801 4.039 3.888a18.108 18.108 0 00-.543 3.563c-2.023.015-4.514.225-5.208 1.131-1.26 1.653-.685 7.148 1.089 8.228 1.072.664 3.955.076 5.94-.444a18.258 18.258 0 003.066 4.484c-1.117 1.525-2.211 3.344-1.947 4.348.514 2.023 5.24 4.907 7.187 4.168.906-.347 1.872-1.962 2.634-3.555 1.89.633 3.872.953 5.865.945.544 1.948 1.428 4.446 2.477 5.073 1.819 1.004 6.884-1.206 7.669-3.138.384-.914-.356-2.756-1.202-4.371 1.239-.7 2.39-1.546 3.427-2.521 1.419 1.088 3.057 2.122 4.031 2.009 2.083-.241 4.936-4.981 4.49-7.011zm-25.959-.074a9.685 9.685 0 01-2.393-14.776 9.676 9.676 0 0110.4-2.749 9.683 9.683 0 015.232 14.026 9.693 9.693 0 01-13.239 3.499zm-288.302 92.422c-.958-2.626-6.722-5.593-10.816-7.417a40.68 40.68 0 00.896-12.114c4.033-1.081 8.421-2.719 9.27-4.821 1.855-4.187-2.24-15.714-6.613-17.12-2.04-.649-5.933.803-9.44 2.487a40.968 40.968 0 00-8.84-9.533c1.762-4.095 3.74-9.627 2.736-12.068-1.746-4.234-13.551-7.417-17.6-5.238-1.931 1.05-3.183 5.222-3.97 9.178a40.525 40.525 0 00-9.396-.371c-.958-3.832-2.364-7.88-4.203-9.039-3.878-2.442-15.343 1.792-17.367 5.918-.99 1.978.432 6.181 2.117 9.874a40.352 40.352 0 00-8.499 7.586c-2.951-2.07-6.18-3.785-8.004-3.322-4.42 1.097-11.048 11.388-9.487 15.699.788 2.179 4.867 4.636 8.606 6.382a40.931 40.931 0 00-.463 11.836c-3.724 1.113-7.587 2.658-8.653 4.512-2.287 3.971 2.41 15.251 6.613 17.105 1.947.865 5.84-.587 9.38-2.318a40.358 40.358 0 009.116 9.271c-1.545 3.786-2.828 8.144-1.962 10.23 1.73 4.249 13.535 7.416 17.584 5.238 1.715-.927 2.905-4.358 3.693-7.896 3.38.394 6.795.362 10.167-.093.525 3.461 1.39 6.845 2.859 8.051 3.553 2.904 15.451.108 17.97-3.74 1.453-2.209-.108-7.973-1.545-12.269a41.088 41.088 0 005.872-5.578c3.492 2.751 8.08 5.826 10.553 5.223 4.388-1.051 10.986-11.403 9.426-15.653zm-70.553-8.714a21.402 21.402 0 0138.047-19.147 21.398 21.398 0 01-10.358 31.415 21.358 21.358 0 01-16.393-.382 21.368 21.368 0 01-11.296-11.886z" fill="#CFD9EB"/><path d="M21.181 254.136l59.768-51.547 44.208-50.868 36.806-36.234 78.433 56.816 28.092-55.503 51.717-66.072" stroke="#394760" stroke-width="3" stroke-miterlimit="10"/><path d="M235.205 177.186a7.14 7.14 0 01-1.319-7.827 7.144 7.144 0 016.73-4.207 7.138 7.138 0 014.663 12.343 7.154 7.154 0 01-10.074-.309zm28.092-55.487a7.142 7.142 0 01-1.322-7.822 7.141 7.141 0 0110.651-2.896 7.134 7.134 0 012.82 7.414 7.141 7.141 0 01-12.149 3.304zm-106.526-1.329a7.14 7.14 0 1110.09.309 7.154 7.154 0 01-10.09-.309zm-36.806 36.25a7.145 7.145 0 01-1.309-7.824 7.143 7.143 0 016.727-4.203 7.141 7.141 0 016.458 4.607 7.137 7.137 0 01-1.786 7.729 7.154 7.154 0 01-10.09-.309zM75.71 207.472a7.141 7.141 0 011.418-10.946 7.142 7.142 0 0110.458 3.526 7.138 7.138 0 01-1.785 7.729 7.12 7.12 0 01-10.09-.309zm-59.735 51.547A7.137 7.137 0 0117.4 248.08a7.142 7.142 0 017.924.242 7.14 7.14 0 01.755 11.006 7.153 7.153 0 01-10.105-.309z" fill="#42A4F4"/><path d="M326.634 137.969a7.132 7.132 0 01-1.31-7.823 7.137 7.137 0 0113.185.404 7.14 7.14 0 01-1.785 7.728 7.155 7.155 0 01-10.09-.309z" fill="#29B9E6"/><path d="M355.096 42.137a40.857 40.857 0 01-69.744 28.889 40.86 40.86 0 016.191-62.858 40.858 40.858 0 0151.587 5.08 40.857 40.857 0 0111.966 28.89z" fill="#42A4F4"/><path d="M348.018 42.137a33.781 33.781 0 01-20.851 31.207 33.779 33.779 0 1120.851-31.207z" fill="#F3F8FF"/><path d="M340.479 42.137A26.27 26.27 0 01309.086 67.9a26.268 26.268 0 1131.393-25.763z" fill="#42A4F4"/><path d="M329.322 42.137a15.092 15.092 0 01-9.323 13.949 15.095 15.095 0 01-20.581-11.013 15.094 15.094 0 0114.823-18.032 15.097 15.097 0 0115.081 15.096z" fill="#F3FAFF"/><path d="M320.205 42.137a5.98 5.98 0 11-5.964-5.964 5.962 5.962 0 015.964 5.964z" fill="#42A4F4"/><path d="M283.934 9.127l-1.098.997 30.496 33.609 1.098-.997-30.496-33.609z" fill="#394760"/><path d="M313.16 43.266a.756.756 0 001.267.62.756.756 0 00-.51-1.316.724.724 0 00-.757.696z" fill="#003AA5"/><path d="M281.606 0l-.726 4.775-5.207.015 12.933 15.993 5.825 1.143-.216-6.335L281.606 0z" fill="#394760"/><path d="M112.889 228.193H58.807V290h54.082v-61.807z" fill="url(#paint0_linear)"/><path d="M189.019 169.028h-54.081V290h54.081V169.028z" fill="url(#paint1_linear)"/><path d="M265.15 192.19h-54.081V290h54.081v-97.81z" fill="url(#paint2_linear)"/><path d="M341.282 105.706h-54.081V290h54.081V105.706z" fill="url(#paint3_linear)"/><path d="M38 291h328.5" stroke="#394760" stroke-width="3" stroke-miterlimit="10"/><defs><linearGradient id="paint0_linear" x1="58.807" y1="290" x2="120.067" y2="236.397" gradientUnits="userSpaceOnUse"><stop stop-color="#425AF4"/><stop offset="1" stop-color="#42A4F4"/></linearGradient><linearGradient id="paint1_linear" x1="134.938" y1="290" x2="225.084" y2="249.7" gradientUnits="userSpaceOnUse"><stop stop-color="#425AF4"/><stop offset="1" stop-color="#42A4F4"/></linearGradient><linearGradient id="paint2_linear" x1="211.069" y1="290" x2="293.906" y2="244.197" gradientUnits="userSpaceOnUse"><stop stop-color="#425AF4"/><stop offset="1" stop-color="#42A4F4"/></linearGradient><linearGradient id="paint3_linear" x1="287.201" y1="290" x2="386.788" y2="260.776" gradientUnits="userSpaceOnUse"><stop stop-color="#425AF4"/><stop offset="1" stop-color="#42A4F4"/></linearGradient></defs></svg>