<svg width="550" height="520" fill="none" xmlns="http://www.w3.org/2000/svg"><path opacity=".07" d="M548.573 362.21c5.825-48.731-12.299-88.796-58.76-118.99-46.461-30.195-69.574-13.027-79.553-41.279-9.98-28.252 33.616-46.169 25.926-89.541-7.69-43.372-56.86-59.35-82.309-70.081-75.338-31.363-164.848 22.939-160.753 116.243.013.333.033.817.029 1.436a33.783 33.783 0 01-35.235 33.883C86.853 191.207 22.402 242.236 5.158 310.74c-11.13 44.048-.29 93.793 30.428 127.333 22.924 25.035 54.81 39.968 86.955 50.848 64.458 21.833 128.867-43.035 196.829-45.75 63.644-2.527 135.782 56.187 179.637 10.017 23.415-24.604 45.549-57.229 49.566-90.978z" fill="#007AFF"/><path opacity=".07" d="M259.819.001c-21.284.26-35.992 11.546-53.077 24.25-19.867 14.849-15.25 38.725-40.948 44.944-15.647 3.813-49.898 7.02-64.766 12.202-30.464 10.559-47.59 37.089-50.46 66.921-2.302 24.212 3.872 48.43 14.39 70.08 9.463 19.504 22.274 37.39 36.07 54.121 13.27 16.085 27.884 31.144 34.934 51.271 5.861 16.744 5.689 34.383 7.501 51.674 4.354 41.328 22.768 85.149 56.744 108.854a103.608 103.608 0 0062.02 18.109 103.785 103.785 0 0060.738-22.145c15.729-12.215 30.32-27.256 49.634-33.754 13.459-4.535 28.532-4.487 40.841-11.556 8.182-4.702 14.412-12.193 19.482-20.145 18.493-29.062 23.012-65.304 18.84-99.468-3.904-32.159-10.765-63.985-26.56-91.971-32.638-57.812-28.842-74.547-44.441-141.99-10.005-43.513-60.936-73.583-106.818-80.383A92.882 92.882 0 00259.819.001z" fill="#007AFF"/><path d="M376.996 266.282l.183-.245" stroke="#42A4F4" stroke-width="1.42" stroke-linecap="round" stroke-linejoin="round"/><path d="M387.262 251.804c22.362-33.814 46.959-86.742 7.481-113.033-45.475-30.296-99.204-27.206-146.163-82.126-5.875-6.852-11.141-14.477-12.198-23.587-1.504-11.915 8.132-23.993 16.65-17.018 9.615 7.767 4.248 30.601-18.093 47.58a140.452 140.452 0 01-87.312 28.344c-32.038-.691-91.255 22.814-92.068 75.803-1.017 67.587 88.775 60.654 93.105 172.995" stroke="#42A4F4" stroke-width="2" stroke-linecap="round" stroke-linejoin="round" stroke-dasharray="0.29 8.59"/><path d="M148.908 349.505v.285" stroke="#42A4F4" stroke-width="1.42" stroke-linecap="round" stroke-linejoin="round"/><path opacity=".35" d="M454.997 390.131a39.505 39.505 0 00-7.847 2.969l-4.859 2.562c-1.727.915-3.496 2.033-5.387 3.152-7.542 4.554-16.263 10.349-26.224 16.551-6.098 3.863-11.872 7.584-17.299 11.265-5.428 3.68-10.388 7.32-14.739 10.919-8.863 7.055-15.389 13.704-18.458 18.544 3.069-4.799 6.566-13.441 13.153-23.343a105.645 105.645 0 0112.197-15.291 98.186 98.186 0 0117.523-14.233 81.128 81.128 0 0131.408-11.163c9.209-1.383 16.283-.976 20.532-1.932z" fill="#42A4F4"/><path opacity=".66" d="M448.207 367.562c-3.578.955-8.802 4.066-14.84 8.499-6.038 4.432-13.01 9.821-21.142 15.453-4.919 3.518-9.676 6.852-14.108 10.167-4.432 3.314-8.579 6.486-12.197 9.658-7.298 6.242-12.706 12.2-15.023 16.409 2.317-4.25 4.554-11.915 9.453-20.882a84.948 84.948 0 019.432-13.908 77.264 77.264 0 0114.23-13.115 63.445 63.445 0 0126.651-10.37c7.868-1.261 13.966-.874 17.544-1.911z" fill="#42A4F4"/><path opacity=".54" d="M451.297 342.165c-2.29.64-4.49 1.57-6.546 2.765l-3.964 2.461c-1.382.874-2.785 2.033-4.309 3.05-5.977 4.392-12.604 9.943-20.329 15.921-4.615 3.761-8.985 7.381-13.051 10.98-4.066 3.599-7.766 7.218-10.896 10.776-6.404 6.995-10.754 13.685-12.198 18.3 1.545-4.554 2.46-12.464 6.221-22.021a72.78 72.78 0 017.867-14.924 70.375 70.375 0 0113.295-14.234 57.448 57.448 0 0126.427-11.366c2.033-.264 3.802-.59 5.55-.691l4.818-.326a41.839 41.839 0 007.115-.691z" fill="#42A4F4"/><path d="M383.948 333.3c.509 3.68 3.192 9.15 5.265 16.754a69.573 69.573 0 012.176 28.284 85.566 85.566 0 01-4.961 18.503 95.703 95.703 0 01-7.521 14.884c-5.306 8.642-10.612 14.559-12.99 18.768 2.399-4.229 4.553-11.895 6.342-21.37.956-4.738 1.667-9.964 2.541-15.433l2.44-17.385c1.382-9.882 3.354-18.544 4.838-25.946 1.484-7.401 2.379-13.298 1.87-17.059zm35.596 155.814c-3.212 1.139-7.644 10.289-16.751 13.522-11.161 3.944-22.728.488-26.936 2.033 4.208-1.484 11.019-11.488 22.159-15.433 9.066-3.294 18.316 1.017 21.528-.122z" fill="#42A4F4"/><path d="M201.763 400.217a104.73 104.73 0 0120.329 40.138 112.392 112.392 0 013.069 20.17c.183 3.233.305 6.344.265 9.374-.041 3.03-.346 5.978-.631 8.764a95.915 95.915 0 01-2.703 15.067 186.65 186.65 0 01-1.647 6.1 116.66 116.66 0 01-1.85 5.164 92.704 92.704 0 01-4.066 9.455s-3.273-2.237-8.273-6.1l-4.066-3.111-4.838-3.477c-3.375-2.48-6.892-5.266-10.917-8.133-2.033-1.423-3.923-2.908-5.895-4.433-1.972-1.525-4.188-2.989-6.241-4.554-4.066-3.193-8.477-6.283-12.441-9.699a139.552 139.552 0 01-40.759-48.8c-2.643-4.514-4.879-9.476-7.298-13.969-1.179-2.298-2.277-4.657-3.375-6.954-1.098-2.298-2.256-4.413-3.313-6.588-2.033-4.453-4.066-8.439-5.997-12.2-.936-1.891-1.79-3.701-2.603-5.368l-2.337-4.534c-2.846-5.612-4.473-9.211-4.473-9.211a90.28 90.28 0 0110.043-2.379c1.626-.305 3.415-.61 5.407-.895 1.992-.285 4.066-.386 6.302-.529a96.681 96.681 0 0115.287.122c2.785.224 5.692.549 8.742.956 3.049.407 5.997 1.179 9.148 1.932a110.179 110.179 0 0119.291 6.628 104.452 104.452 0 0135.84 27.064z" fill="url(#paint0_linear)"/><path d="M172.815 376.711l-2.033-1.138c.203 3.334.549 7.665 1.098 12.586s1.077 10.695 2.033 16.531c.467 2.928.874 6.1 1.463 9.13.59 3.029 1.301 6.1 2.033 9.292s1.504 6.324 2.501 9.414c.996 3.091 1.91 6.304 3.171 9.354-1.83-2.542-3.517-5.206-5.489-7.625l-5.814-7.402c-2.033-2.419-4.066-4.717-6.098-7.076-1.058-1.179-2.033-2.379-3.131-3.517l-3.476-3.335a56.645 56.645 0 01-4.92-5.754 53.127 53.127 0 01-4.269-5.958 113.59 113.59 0 01-6.729-12.668c-1.85-4.392-3.578-8.601-5.001-12.708-1.423-4.107-2.541-8.133-3.598-11.59l-2.033-.244c1.667 5.429 3.619 12.2 6.363 18.951 1.423 3.314 2.785 6.954 4.513 10.309.834 1.708 1.769 3.355 2.724 5.022.956 1.667 1.911 3.396 2.989 5.043a211.02 211.02 0 00-56.067-36.377l-1.342.387.59 1.301a209.955 209.955 0 0155.477 36.051 65.02 65.02 0 00-5.204-2.338 54.026 54.026 0 00-5.408-1.546 48.852 48.852 0 00-10.51-1.464 60.426 60.426 0 00-18.153 2.135l.813 1.566a54.863 54.863 0 0110.734-1.749 49.244 49.244 0 0112.624.468 44.856 44.856 0 0113.112 4.067 54.07 54.07 0 016.281 3.578 47.153 47.153 0 015.652 4.921l3.273 3.314c1.077 1.119 2.032 2.318 3.11 3.477 2.033 2.339 4.066 4.616 6.098 7.015l5.774 7.341c2.033 2.419 3.598 5.042 5.428 7.564a51.275 51.275 0 00-7.725-5.816 72.835 72.835 0 00-8.274-4.27 55.97 55.97 0 00-8.355-2.907 65.252 65.252 0 00-8.132-1.647 82.182 82.182 0 00-14.779-.387 86.016 86.016 0 00-10.977 1.708l.874 1.505a71.55 71.55 0 0131.266.203 60.586 60.586 0 0119.048 8.134 67.61 67.61 0 018.538 7.096 55.108 55.108 0 017.033 9.211c1.383 2.033 2.46 4.372 3.68 6.547 1.22 2.176 2.419 4.372 3.537 6.609l3.192 6.791 1.443 3.375c.508 1.139.935 2.318 1.403 3.457a56.922 56.922 0 00-17.341-15.453 67.878 67.878 0 00-18.987-7.544 80.826 80.826 0 00-15.612-1.911 64.769 64.769 0 00-8.132.345l1.444 1.485a68.069 68.069 0 0111.729.162c2.945.241 5.872.669 8.762 1.281a86.764 86.764 0 019.737 2.867 57.781 57.781 0 0110.165 4.819 64.88 64.88 0 015.001 3.213c1.646 1.179 3.11 2.481 4.614 3.863a69.678 69.678 0 014.412 4.433 48.089 48.089 0 013.821 5.083 64.106 64.106 0 013.355 5.612 52.057 52.057 0 012.459 6.222c2.033 5.429 3.294 11.041 4.798 16.592l1.179.813.61-1.26c-1.504-5.592-2.846-11.265-4.818-16.714-.732-2.176-1.301-4.372-1.809-6.547a65.6 65.6 0 01-1.484-6.446c-.407-2.155-.63-4.351-.915-6.507-.285-2.155-.529-4.27-.671-6.425a114.5 114.5 0 01-.244-6.466c-.02-2.155-.162-4.189-.142-6.303 0-4.169.305-8.398.406-12.302.102-3.904.509-7.808.895-11.448.386-3.639.63-6.933 1.016-9.983.712-6.1 1.586-10.94 2.033-13.481l-1.667-2.461c-.244 1.18-.691 4.413-1.382 9.171-.691 4.758-1.382 10.939-2.033 17.832-.65 6.893-.976 14.579-1.138 22.59 0 3.965.183 7.93.345 12.038.163 4.107.854 8.133 1.383 12.2-.488-1.159-.936-2.339-1.444-3.498l-1.748-3.497-3.212-6.852c-1.138-2.257-2.399-4.453-3.578-6.67-1.179-2.216-2.236-4.473-3.618-6.506a74.39 74.39 0 01-5.306-10.472 78.043 78.043 0 01-4.066-10.736 162.057 162.057 0 01-5.163-21.533 480.294 480.294 0 01-2.745-19.988c-.711-6.12-1.036-11.488-1.26-15.555z" fill="#394760"/><path opacity=".58" d="M118.273 496.271c-3.273-1.484-9.128-2.42-16.263-5.653a48.97 48.97 0 01-21.61-18.523 57.455 57.455 0 01-4.553-8.967 58.747 58.747 0 01-2.622-9.109 61.018 61.018 0 01-.936-16.694c.834-10.167 3.781-17.344 4.676-21.94-.935 4.636-.224 12.465 2.44 21.269a118.435 118.435 0 0013.05 27.938c4.88 7.767 9.392 14.762 13.824 20.333 4.432 5.571 8.68 9.862 11.994 11.346z" fill="#42A4F4"/><path d="M98.574 495.661c-2.276-.772-9.35 4.392-15.795 2.237-7.888-2.643-12.197-11.59-15.084-12.586 2.968.996 11.73-3.599 19.617-.956 6.445 2.094 8.986 10.472 11.262 11.305z" fill="#42A4F4"/><path d="M132.3 448.081a113.18 113.18 0 0110.591 14.233c3.334 4.982 6.607 10.167 9.819 14.884 3.211 4.718 6.24 8.886 8.517 11.855l3.7 4.859-1.464.753a44.355 44.355 0 01-4.208 1.85 55.55 55.55 0 01-16.08 3.477 60.037 60.037 0 01-23.561-3.111 56.283 56.283 0 01-37.059-40.666 60.285 60.285 0 01-.854-23.75 55.53 55.53 0 014.98-15.677c.834-1.769 1.688-3.111 2.217-4.066l.894-1.363 4.493 4.067c2.744 2.542 6.647 5.978 10.998 9.597 4.35 3.62 9.229 7.402 13.884 11.163a113.538 113.538 0 0113.133 11.895z" fill="url(#paint1_linear)"/><path d="M121.668 438.24l-.732-.63a37.825 37.825 0 00-3.821 14.599 31.662 31.662 0 005.854 20.333 93.337 93.337 0 01-15.145-16.388 24.614 24.614 0 01-4.391-16.084 31.29 31.29 0 014.066-13.237l-.793-.651a32.832 32.832 0 00-3.862 10.065 27.834 27.834 0 00.447 13.014 96.298 96.298 0 01-12.868-37.414l-.63-.569-.468.691a97.324 97.324 0 0013.011 37.861 117.295 117.295 0 00-20.96-15.169l-.142 1.281c3.822 2.298 8.538 5.206 13.112 8.601a58.659 58.659 0 0112.584 12.322 94.683 94.683 0 0015.307 16.572 158.952 158.952 0 00-21.609-8.581c-6.953-2.318-13.254-4.27-17.178-5.429l.447 1.424a417.999 417.999 0 0120.919 6.628 99.933 99.933 0 0124.801 11.651 94.552 94.552 0 0015.795 8.967 112.375 112.375 0 00-14.596-1.708c-4.777-.325-9.493-.447-13.762-.549-8.539-.162-15.308-.183-16.792-.101l1.443 1.24c3.273 0 11.893-.102 21.61.163 4.879.142 10.042.427 15.206 1.016a74.976 74.976 0 0115.551 3.355 97.718 97.718 0 0010.164 2.786l.753-.386-.529-.692c-3.366-.75-6.69-1.673-9.961-2.765a28.106 28.106 0 01-12.522-8.703 31.995 31.995 0 01-6.221-12.2 36.787 36.787 0 01-.305-17.852l-.772-.773a37.578 37.578 0 00-.997 13.867 35.965 35.965 0 003.416 11.59 31.462 31.462 0 008.782 10.736 94.05 94.05 0 01-15.633-8.865 27.712 27.712 0 01-8.802-10.167 31.115 31.115 0 01-3.233-11.793 36.918 36.918 0 013.456-18.056z" fill="#394760"/><path d="M405.639 473.295a73.397 73.397 0 01-25.452 17.201 78.883 78.883 0 01-13.376 4.067c-2.175.427-4.289.813-6.343 1.098-2.053.285-4.065.366-6.098.468-3.51.2-7.03.138-10.53-.183-1.566-.143-3.009-.285-4.351-.468-1.342-.183-2.602-.447-3.72-.671a65.333 65.333 0 01-6.932-1.749s1.159-2.48 3.192-6.323a131.93 131.93 0 011.687-3.131l1.87-3.701c1.342-2.603 2.866-5.327 4.411-8.398l5.022-9.312c1.809-3.091 3.537-6.487 5.549-9.598a94.693 94.693 0 0130.737-32.777c2.968-2.216 6.241-4.168 9.209-6.1l8.985-5.592c2.948-1.728 5.571-3.436 8.132-4.941l3.578-2.033 3.008-1.871c3.721-2.297 6.099-3.599 6.099-3.599a64.253 64.253 0 012.196 6.812c.284 1.098.609 2.318.914 3.66.305 1.342.488 2.765.732 4.311.543 3.478.835 6.991.874 10.512v6.1c0 2.176-.386 4.189-.671 6.385a79.921 79.921 0 01-3.15 13.623 73.606 73.606 0 01-15.572 26.21z" fill="url(#paint2_linear)"/><path d="M419.279 451.822l.61-1.484a139.84 139.84 0 00-8.538 1.647c-3.334.752-7.237 1.505-11.18 2.623a110.604 110.604 0 00-24.741 9.353 160.49 160.49 0 0017.89-18.91 37.584 37.584 0 013.578-3.822 34.987 34.987 0 013.781-3.396 73.094 73.094 0 018.233-5.551c2.887-1.565 5.651-3.029 8.396-4.27 2.744-1.24 5.427-2.257 7.725-3.192v-1.464c-7.4 2.948-17.585 7.239-25.899 14.05a163.35 163.35 0 0021.548-40.951l-.345-.915-.875.488a161.708 161.708 0 01-21.365 40.666 39.68 39.68 0 00-.427-27.429l-1.037.671a39.045 39.045 0 011.891 7.34c.529 2.896.706 5.846.528 8.784a32.538 32.538 0 01-1.829 9.353 37.73 37.73 0 01-2.033 4.596 32.583 32.583 0 01-2.927 4.27 159.768 159.768 0 01-17.747 18.767 43.297 43.297 0 007.257-23.79c.029-3.447-.25-6.89-.833-10.288a60.502 60.502 0 00-2.033-7.483l-.976.732a50.853 50.853 0 012.033 9.171c.584 4.152.625 8.362.122 12.525a42.948 42.948 0 01-4.066 13.847 44.695 44.695 0 01-4.066 6.506 38.265 38.265 0 01-5.651 5.694c-2.724 2.175-5.55 4.188-8.335 6.242a87.428 87.428 0 01-8.721 5.653 45.042 45.042 0 0012.38-27.288c.33-3.659.33-7.341 0-11a47.42 47.42 0 00-.914-5.592l-.915 1.139c.51 2.683.802 5.403.874 8.133a53.749 53.749 0 01-.142 6.1 59.637 59.637 0 01-1.098 6.995 42.464 42.464 0 01-2.379 7.422 55.31 55.31 0 01-1.707 3.761c-.63 1.261-1.403 2.379-2.196 3.559a42.038 42.038 0 01-2.602 3.477 37.256 37.256 0 01-3.069 3.151 43.955 43.955 0 01-3.497 2.908 40.686 40.686 0 01-4.066 2.379c-3.496 2.033-7.155 3.477-10.794 5.144-.265.59-.427.895-.427.895l.935.285c3.659-1.668 7.359-3.254 10.896-5.185 11.161-5.816 23.276-7.605 34.335-8.479 2.724-.224 5.367-.366 7.888-.427s4.797-.163 6.912-.163c4.208 0 7.602.163 9.371.203l1.525-1.342c-.834 0-3.07-.122-6.383-.183-3.314-.061-7.583 0-12.34.204a122.317 122.317 0 00-31.672 4.961c3.029-1.728 5.855-3.802 8.782-5.693 2.927-1.891 5.672-4.067 8.396-6.283a83.127 83.127 0 0128.033-13.644 218.278 218.278 0 0123.906-5.47z" fill="#394760"/><path d="M344.328 79.48H188.346c-17.728 0-32.099 14.374-32.099 32.106v376.308c0 17.732 14.371 32.106 32.099 32.106h155.982c17.728 0 32.099-14.374 32.099-32.106V111.586c0-17.732-14.371-32.106-32.099-32.106z" fill="#F5FAFF"/><path d="M344.348 85.071H188.346c-14.629 0-26.489 11.862-26.489 26.494v376.329c0 14.632 11.86 26.494 26.489 26.494h156.002c14.629 0 26.488-11.862 26.488-26.494V111.565c0-14.632-11.859-26.494-26.488-26.494z" fill="#fff"/><path d="M320.015 97.129a11.995 11.995 0 01-12.014 12.017h-83.348a12.003 12.003 0 01-8.475-3.528 11.996 11.996 0 01-3.499-8.49 3.171 3.171 0 00-3.171-3.171h-21.02a17.339 17.339 0 00-17.218 17.283v377a17.326 17.326 0 0017.32 17.323h155.718a17.318 17.318 0 0017.32-17.323v-377a17.345 17.345 0 00-17.32-17.344h-21.122a3.17 3.17 0 00-3.171 3.233z" fill="url(#paint3_linear)"/><path d="M218.331 321.975a3.464 3.464 0 00-1.463-1.942 3.463 3.463 0 00-2.379-.498c-1.606 0-3.334.671-3.334 2.034 0 1.362.813 1.769 2.358 2.033l2.419.468c3.192.671 6.099 1.708 6.099 5.042 0 3.335-3.212 5.389-7.116 5.389a6.689 6.689 0 01-7.379-5.572h3.334a3.703 3.703 0 004.066 3.071c2.033 0 3.74-.895 3.74-2.4 0-1.504-1.484-2.216-3.232-2.562l-2.561-.508c-2.541-.488-4.94-1.606-4.94-4.819s3.171-4.819 6.871-4.819a6.404 6.404 0 016.769 5.083h-3.252zm19.271 7.238h3.314a7.464 7.464 0 01-7.623 5.388 8.84 8.84 0 01-8.473-8.786 8.846 8.846 0 018.371-8.883c5.245 0 8.294 4.29 7.948 9.8H228.19a5.02 5.02 0 004.94 5.063 4.304 4.304 0 004.472-2.582zm-9.31-5.063h9.453a4.517 4.517 0 00-4.574-4.534 4.56 4.56 0 00-3.419 1.213 4.573 4.573 0 00-1.46 3.321zm16.161 5.47c0-4.067 4.899-5.246 11.445-5.917v-.346c0-2.989-1.585-4.067-3.659-4.067a3.24 3.24 0 00-3.679 3.254h-3.314c.264-3.62 3.253-5.775 7.115-5.775 4.391 0 6.871 2.033 6.851 7.178v4.066a30.636 30.636 0 00.467 6.1h-3.151a22.396 22.396 0 01-.284-2.236 6.1 6.1 0 01-5.672 2.643c-3.578.081-6.119-1.81-6.119-4.9zm11.608-3.498c-5.265.509-8.132 1.261-8.132 3.437 0 1.545 1.179 2.521 3.212 2.521a4.35 4.35 0 004.818-4.717l.102-1.241zm10.754 8.073h-3.293v-16.958h3.293v2.46a5.43 5.43 0 015.001-2.765 4.735 4.735 0 014.919 2.989 6.305 6.305 0 015.591-2.989c4.066 0 5.529 2.643 5.529 6.588v10.675h-3.293v-9.801c0-2.42-.407-4.717-3.334-4.717-2.602 0-3.903 2.033-3.903 5.408v9.11h-3.273v-9.801c0-2.42-.407-4.717-3.334-4.717s-3.903 2.033-3.903 5.408v9.11zm24.943-4.575c0-4.067 4.879-5.246 11.425-5.917v-.346c0-2.989-1.566-4.067-3.659-4.067a3.243 3.243 0 00-3.405 1.897c-.189.427-.282.89-.275 1.357h-3.313c.264-3.62 3.252-5.775 7.135-5.775 4.371 0 6.851 2.033 6.83 7.178v4.066a30.637 30.637 0 00.468 6.1h-3.151a22.696 22.696 0 01-.285-2.236 6.088 6.088 0 01-2.471 2.104 6.088 6.088 0 01-3.2.539c-3.497.081-6.099-1.81-6.099-4.9zm11.587-3.498c-5.265.509-8.029 1.261-8.029 3.437 0 1.545 1.199 2.521 3.212 2.521a4.353 4.353 0 004.817-4.717v-1.241zm10.835-6.425a5.713 5.713 0 015.327-2.765c4.065 0 5.651 2.643 5.651 6.588v10.675h-3.273v-9.801c0-2.42-.366-4.717-3.496-4.717-3.131 0-4.209 2.033-4.209 5.408v9.11h-3.293v-16.958h3.293v2.46zm-66.291 21.919a3.566 3.566 0 011.057 2.623 3.46 3.46 0 01-1.057 2.582 3.654 3.654 0 01-2.643 1.078 3.575 3.575 0 01-2.623-1.078 3.417 3.417 0 01-1.077-2.582 3.494 3.494 0 011.077-2.623 3.575 3.575 0 012.623-1.077 3.655 3.655 0 012.643 1.077zm-1.037 4.27a2.226 2.226 0 00.671-1.647 2.317 2.317 0 00-.671-1.688 2.26 2.26 0 00-3.212 0 2.29 2.29 0 00-.671 1.688 2.226 2.226 0 00.671 1.647 2.247 2.247 0 001.606.672 2.26 2.26 0 001.606-.672zm11.567 1.85h-1.199l-3.883-4.575v4.514h-1.443v-7.035h1.199l3.903 4.636v-4.636h1.423v7.096zm8.741.001h-5.061v-7.036h1.423v5.754h3.638v1.282zm3.355 0v-7.036h1.423v7.036h-1.423zm11.628-.001h-1.098l-4.065-4.575v4.514h-1.423v-7.035h1.199l3.903 4.636v-4.636h1.423l.061 7.096zm9.066.001h-5.346v-7.036h5.346v1.302h-3.882v1.586h3.578v1.26h-3.578v1.606h3.882v1.282zm-26.915-96.075a101.688 101.688 0 01-1.281 46.177l-3.577-31.476a121.037 121.037 0 01-5.062 16.266l5.854.509-6.342.752a122.041 122.041 0 01-2.48 5.714l8.761.711-9.615 1.078c-.955 2.033-2.033 3.802-2.907 5.571l12.339 1.18-14.047 1.809c-.996 1.708-2.033 3.315-3.008 4.84 20.613-2.034 35.026-12.81 34.558.406 20.146-16.47 7.136-44.184-13.193-53.537z" fill="#fff"/><path d="M280.902 99.508h-29.111a2.031 2.031 0 01-2.032-2.034 2.034 2.034 0 012.032-2.033h29.111a2.036 2.036 0 012.033 2.033 2.034 2.034 0 01-2.033 2.034zm14.637-2.094a2.107 2.107 0 01-2.104 2.104 2.105 2.105 0 112.104-2.104z" fill="#DDEBFA"/><path d="M155.861 172.83h1.179a1.261 1.261 0 011.26 1.26v27.593a1.257 1.257 0 01-1.26 1.179h-1.22a.55.55 0 01-.549-.549v-28.934a.552.552 0 01.367-.52.545.545 0 01.223-.029zm0 34.099h1.179a1.257 1.257 0 011.26 1.26v27.592a1.26 1.26 0 01-1.26 1.261h-1.22a.55.55 0 01-.548-.549v-28.934a.54.54 0 01.141-.459.565.565 0 01.204-.137.535.535 0 01.244-.034zm220.545 30.174h-1.22a1.261 1.261 0 01-1.26-1.261V174.07a1.261 1.261 0 011.26-1.261h1.22a.562.562 0 01.388.161.562.562 0 01.161.388v63.196a.548.548 0 01-.549.549z" fill="#F5FAFF"/><defs><linearGradient id="paint0_linear" x1="230.508" y1="493.73" x2="122.962" y2="374.011" gradientUnits="userSpaceOnUse"><stop stop-color="#4279F4"/><stop offset="1" stop-color="#42A0F4"/></linearGradient><linearGradient id="paint1_linear" x1="158.356" y1="500.429" x2="93.552" y2="412.906" gradientUnits="userSpaceOnUse"><stop stop-color="#4279F4"/><stop offset="1" stop-color="#42A0F4"/></linearGradient><linearGradient id="paint2_linear" x1="328.837" y1="496.244" x2="429.299" y2="400.143" gradientUnits="userSpaceOnUse"><stop stop-color="#425AF4"/><stop offset="1" stop-color="#42A4F4"/></linearGradient><linearGradient id="paint3_linear" x1="171.27" y1="505.563" x2="484.921" y2="360.529" gradientUnits="userSpaceOnUse"><stop stop-color="#425AF4"/><stop offset="1" stop-color="#42A4F4"/></linearGradient></defs></svg>