<svg width="427" height="400" fill="none" xmlns="http://www.w3.org/2000/svg"><path opacity=".07" d="M399.385 80.29a123.672 123.672 0 00-14.622-15.393c-24.907-22.102-58.393-33.954-91.679-33.616-11.887.121-24.128 1.662-35.374-2.164-18.933-6.459-31.797-21.877-52.341-26.552a102.526 102.526 0 00-62.167 5.298C85.199 32.303 45.714 112.927 99.198 161.2c.19.173.467.424.805.762a26.094 26.094 0 015.617 29.187 26.08 26.08 0 01-6.068 8.532c-39.927 37.624-46.766 100.692-18.457 147.267 18.18 29.971 51.381 50.948 86.434 52.22 26.162.953 51.622-8.492 74.997-20.275 46.878-23.616 46.09-94.155 81.377-132.991 33.053-36.36 104.354-44.23 102.717-93.342-.848-26.196-10.864-51.787-27.235-72.27z" fill="#007AFF"/><path opacity=".07" d="M7.933 110.269a77.734 77.734 0 00-5.393 47.71c3.87 18.716 15.522 33.096 11.453 53.059-2.458 12.164-3.082 23.427-4.328 35.495-2.597 24.707 13.48 46.472 33.382 58.228 16.163 9.523 35.105 13.133 53.674 12.873 16.726-.225 33.417-3.315 49.623-7.471 15.583-4 30.889-9.272 47.26-7.61 13.618 1.386 25.885 7.272 38.559 11.662 30.3 10.475 66.946 11.955 94.631-4a79.866 79.866 0 0037.373-86.97c-3.385-14.968-9.116-30.066-7.332-45.667 1.238-10.873 6.207-21.374 5.298-32.273-.606-7.247-3.801-14.042-7.696-20.18-14.25-22.405-38.092-37.408-63.327-45.667-23.747-7.791-48.23-13.41-72.954-11.54-51.078 3.87-61.527-4.25-113.756-15.418-33.676-7.246-71.36 18.457-91.134 48.246a71.58 71.58 0 00-5.333 9.523z" fill="#007AFF"/><g opacity=".81" fill="#fff"><path opacity=".81" d="M236.733 319.469h-17.781a.867.867 0 010-1.731h17.781a.866.866 0 110 1.731zm0 18.484h-17.781a.867.867 0 010-1.732h17.781a.866.866 0 110 1.732z"/><path opacity=".81" d="M250.161 356.643H140.328a2.356 2.356 0 01-2.347-2.346v-57.025a2.355 2.355 0 012.347-2.354h109.833a2.356 2.356 0 012.346 2.354v57.008a2.346 2.346 0 01-.683 1.668 2.365 2.365 0 01-1.663.695zm-109.833-59.994a.606.606 0 00-.438.183.627.627 0 00-.177.44v57.008a.609.609 0 00.18.435.62.62 0 00.435.18h109.833a.618.618 0 00.615-.615v-57.008a.602.602 0 00-.045-.237.608.608 0 00-.57-.386H140.328z"/><path opacity=".66" d="M250.161 356.643H140.328a2.356 2.356 0 01-2.347-2.346v-57.025a2.355 2.355 0 012.347-2.354h109.833a2.356 2.356 0 012.346 2.354v57.008a2.346 2.346 0 01-.683 1.668 2.365 2.365 0 01-1.663.695zm-109.833-59.994a.606.606 0 00-.438.183.627.627 0 00-.177.44v57.008a.609.609 0 00.18.435.62.62 0 00.435.18h109.833a.618.618 0 00.615-.615v-57.008a.602.602 0 00-.045-.237.608.608 0 00-.57-.386H140.328z"/><path opacity=".81" d="M236.734 310.501h-84.745a.866.866 0 010-1.732h84.745a.864.864 0 01.866.866.866.866 0 01-.866.866zm0 17.937h-84.745a.865.865 0 110-1.731h84.745a.867.867 0 010 1.731zm-39.053-8.969h-45.692a.865.865 0 110-1.731h45.692c.23 0 .45.091.612.254a.862.862 0 010 1.224.865.865 0 01-.612.253zm0 18.484h-45.692a.866.866 0 010-1.732h45.692c.23 0 .45.091.612.254a.862.862 0 010 1.224.866.866 0 01-.612.254zm-14.873 8.562h-30.819a.866.866 0 010-1.732h30.819c.23 0 .45.091.612.254a.862.862 0 010 1.224.866.866 0 01-.612.254z"/></g><g opacity=".81" fill="#fff"><path opacity=".81" d="M66.586 264.012h-19.99a.868.868 0 01-.865-.866.864.864 0 01.866-.866h19.99a.863.863 0 01.865.866.866.866 0 01-.866.866zm0-20.778h-19.99a.867.867 0 01-.865-.865.864.864 0 01.866-.866h19.99a.863.863 0 01.865.866.867.867 0 01-.866.865z"/><path opacity=".81" d="M155.106 289.68H31.308a2.346 2.346 0 01-2.346-2.346v-64.435a2.345 2.345 0 012.346-2.346h123.798a2.346 2.346 0 012.346 2.346v64.435a2.346 2.346 0 01-2.346 2.346zM31.308 222.284a.616.616 0 00-.615.615v64.435a.617.617 0 00.615.615h123.798a.614.614 0 00.614-.615v-64.435a.616.616 0 00-.614-.615H31.308z"/><path opacity=".66" d="M155.106 289.68H31.308a2.346 2.346 0 01-2.346-2.346v-64.435a2.345 2.345 0 012.346-2.346h123.798a2.346 2.346 0 012.346 2.346v64.435a2.346 2.346 0 01-2.346 2.346zM31.308 222.284a.616.616 0 00-.615.615v64.435a.617.617 0 00.615.615h123.798a.614.614 0 00.614-.615v-64.435a.616.616 0 00-.614-.615H31.308z"/><path opacity=".81" d="M141.843 274.123h-95.23a.867.867 0 01-.611-1.478.867.867 0 01.612-.253h95.229c.229 0 .449.091.612.253a.87.87 0 010 1.225.868.868 0 01-.612.253zm0-20.162h-95.23a.868.868 0 01-.865-.866.864.864 0 01.866-.866h95.229a.865.865 0 010 1.732zm0 10.051H90.497a.868.868 0 01-.866-.866.864.864 0 01.866-.866h51.346a.864.864 0 01.865.866.867.867 0 01-.865.866zm0-20.778H90.497a.867.867 0 01-.866-.865.864.864 0 01.866-.866h51.346a.864.864 0 01.865.866.867.867 0 01-.865.865zm0-9.6h-34.629a.87.87 0 01-.865-.866.865.865 0 01.865-.866h34.629c.23 0 .45.091.612.254a.862.862 0 010 1.224.866.866 0 01-.612.254z"/></g><g opacity=".81" fill="#fff"><path opacity=".81" d="M217.16 89.838h17.782a.864.864 0 01.866.866.868.868 0 01-.866.865H217.16a.866.866 0 010-1.731zm0-18.483h17.782a.864.864 0 01.612 1.478.864.864 0 01-.612.253H217.16a.866.866 0 010-1.731z"/><path opacity=".81" d="M203.733 52.69h109.799a2.347 2.347 0 012.346 2.346v56.999a2.35 2.35 0 01-1.446 2.175 2.34 2.34 0 01-.9.18H203.733a2.357 2.357 0 01-2.346-2.355V55.036a2.344 2.344 0 012.346-2.346zm109.799 59.968a.622.622 0 00.437-.183.602.602 0 00.177-.44V55.036a.612.612 0 00-.614-.614H203.733a.615.615 0 00-.615.614v56.999a.628.628 0 00.044.238.633.633 0 00.334.338.618.618 0 00.237.047h109.799z"/><path opacity=".66" d="M203.733 52.69h109.799a2.347 2.347 0 012.346 2.346v56.999a2.35 2.35 0 01-1.446 2.175 2.34 2.34 0 01-.9.18H203.733a2.357 2.357 0 01-2.346-2.355V55.036a2.344 2.344 0 012.346-2.346zm109.799 59.968a.622.622 0 00.437-.183.602.602 0 00.177-.44V55.036a.612.612 0 00-.614-.614H203.733a.615.615 0 00-.615.614v56.999a.628.628 0 00.044.238.633.633 0 00.334.338.618.618 0 00.237.047h109.799z"/><path opacity=".81" d="M217.16 98.816h84.745a.864.864 0 01.612 1.477.862.862 0 01-.612.254H217.16a.864.864 0 01-.866-.866.868.868 0 01.866-.865zm0-17.946h84.745a.864.864 0 01.612 1.477.864.864 0 01-.612.254H217.16a.866.866 0 010-1.732zm39.053 8.968h45.692a.868.868 0 01.866.866.867.867 0 01-.866.865h-45.692a.864.864 0 01-.612-1.477.864.864 0 01.612-.254zm0-18.483h45.692a.868.868 0 01.866.866.866.866 0 01-.866.865h-45.692a.864.864 0 01-.866-.865.864.864 0 01.866-.866zm14.899-8.562h30.811a.868.868 0 01.865.866.866.866 0 01-.865.865h-30.811a.864.864 0 01-.866-.865.864.864 0 01.866-.866z"/></g><g opacity=".81" fill="#fff"><path opacity=".81" d="M344.022 171.241h19.99a.868.868 0 01.612 1.478.864.864 0 01-.612.254h-19.99a.865.865 0 010-1.732zm0 20.778h19.99a.867.867 0 010 1.731h-19.99a.868.868 0 01-.612-.253.87.87 0 010-1.225.868.868 0 01.612-.253z"/><path opacity=".81" d="M255.468 145.599h123.858a2.344 2.344 0 012.346 2.346v64.435a2.34 2.34 0 01-1.446 2.176 2.354 2.354 0 01-.9.179H255.529a2.353 2.353 0 01-2.346-2.355v-64.435a2.354 2.354 0 012.285-2.346zm123.798 67.405a.623.623 0 00.437-.183.62.62 0 00.177-.441v-64.435a.614.614 0 00-.614-.615H255.468a.618.618 0 00-.615.615v64.435a.603.603 0 00.045.238.608.608 0 00.57.386h123.798z"/><path opacity=".66" d="M255.468 145.599h123.858a2.344 2.344 0 012.346 2.346v64.435a2.34 2.34 0 01-1.446 2.176 2.354 2.354 0 01-.9.179H255.529a2.353 2.353 0 01-2.346-2.355v-64.435a2.354 2.354 0 012.285-2.346zm123.798 67.405a.623.623 0 00.437-.183.62.62 0 00.177-.441v-64.435a.614.614 0 00-.614-.615H255.468a.618.618 0 00-.615.615v64.435a.603.603 0 00.045.238.608.608 0 00.57.386h123.798z"/><path opacity=".81" d="M268.766 161.156h95.229c.229 0 .449.091.612.253a.868.868 0 010 1.225.868.868 0 01-.612.253h-95.229a.87.87 0 01-.613-.253.87.87 0 010-1.225.87.87 0 01.613-.253zm0 20.171h95.229a.865.865 0 010 1.731h-95.229a.867.867 0 010-1.731zm0-10.086h51.354a.866.866 0 010 1.732h-51.354a.866.866 0 110-1.732zm0 20.778h51.354a.865.865 0 110 1.731h-51.354a.87.87 0 01-.613-.253.87.87 0 010-1.225.87.87 0 01.613-.253zm0 9.661h34.628c.23 0 .45.091.612.254a.862.862 0 010 1.224.865.865 0 01-.612.253h-34.628a.867.867 0 010-1.731z"/></g><path d="M109.318 76.29h159.698a5.813 5.813 0 015.383 3.589c.293.706.444 1.463.444 2.228v235.224a20.092 20.092 0 01-20.094 20.093H143.851a42.818 42.818 0 01-42.818-42.818V84.557a8.26 8.26 0 012.427-5.852 8.273 8.273 0 015.858-2.415z" fill="#fff"/><path opacity=".39" d="M109.023 76.29h156.764a9.054 9.054 0 019.056 9.055v226.982a25.107 25.107 0 01-25.106 25.106H143.643a42.58 42.58 0 01-39.351-26.286 42.594 42.594 0 01-3.242-16.299V84.254a7.972 7.972 0 017.973-7.964z" fill="#007AFF"/><path opacity=".46" d="M117.879 76.29h154.496a2.462 2.462 0 012.279 1.515c.125.3.188.62.188.943v240.176a18.496 18.496 0 01-18.5 18.5H154.845a38.349 38.349 0 01-38.351-38.359V77.666a1.372 1.372 0 01.406-.976 1.38 1.38 0 01.979-.4z" fill="#007AFF"/><path opacity=".39" d="M140.743 337.381v.044h139.588a29.09 29.09 0 0029.088-29.089v-11.055H168.256v11.055a29.1 29.1 0 01-27.513 29.045z" fill="#007AFF"/><path d="M159.252 337.381v.044h124.274c14.301 0 25.893-13.029 25.893-29.089v-11.055H183.743v11.055c0 15.531-10.847 28.223-24.491 29.045z" fill="#007AFF"/><path d="M248.464 267.18H148.102a1.27 1.27 0 01-.512-.063 1.28 1.28 0 01-.443-.264 1.275 1.275 0 01-.405-.924 1.248 1.248 0 01.405-.924 1.262 1.262 0 01.955-.327h100.362a1.256 1.256 0 110 2.502zm2.104-42.255H146.223a1.256 1.256 0 010-2.502h104.345a1.248 1.248 0 011.253.746 1.253 1.253 0 01-.742 1.692 1.266 1.266 0 01-.511.064zm-52.281 21.114h-53.319a1.255 1.255 0 110-2.501h53.319a1.257 1.257 0 011.152 1.25 1.255 1.255 0 01-1.152 1.251z" fill="#fff"/><path d="M194.244 246.039h-45.199a1.251 1.251 0 01-.819-.401 1.25 1.25 0 010-1.7 1.26 1.26 0 01.819-.401h45.243a1.259 1.259 0 011.151 1.251 1.255 1.255 0 01-1.151 1.251h-.044zm21.392-66.296H146.95a1.266 1.266 0 01-.954-.328 1.252 1.252 0 010-1.847 1.265 1.265 0 01.954-.327h68.686a1.255 1.255 0 110 2.502zm31.85 0h-20.924a1.27 1.27 0 01-.955-.328 1.26 1.26 0 01-.299-1.428 1.265 1.265 0 011.254-.746h20.924a1.256 1.256 0 010 2.502zm3.082 21.115h-74.374a1.255 1.255 0 010-2.511h74.374a1.255 1.255 0 110 2.511zm-81.724 0h-22.621a1.258 1.258 0 01-.888-2.143c.236-.236.555-.368.888-.368h22.621a1.255 1.255 0 110 2.511zm79.62-39.001H148.102a1.253 1.253 0 01-1.254-.747 1.248 1.248 0 010-1.008c.07-.159.172-.302.299-.42a1.262 1.262 0 01.955-.327h100.362a1.256 1.256 0 110 2.502zm0-42.247H148.102a1.253 1.253 0 01-1.254-.747 1.248 1.248 0 010-1.008c.07-.159.172-.302.299-.42a1.262 1.262 0 01.955-.327h100.362a1.256 1.256 0 110 2.502zm-63.526 21.106H146.95a1.248 1.248 0 01-1.253-.746 1.253 1.253 0 01.742-1.692c.164-.056.338-.078.511-.064h37.988a1.256 1.256 0 010 2.502zm62.799 0H202.46a1.251 1.251 0 01-.819-.401 1.25 1.25 0 010-1.7c.213-.231.505-.375.819-.401h45.277c.173-.014.347.008.512.064a1.25 1.25 0 01.742 1.692 1.26 1.26 0 01-1.254.746z" fill="#fff"/><path opacity=".21" d="M285.559 254.576c21.397-21.397 21.397-56.089 0-77.486-21.397-21.398-56.089-21.398-77.487 0-21.397 21.397-21.397 56.089 0 77.486 21.398 21.398 56.09 21.398 77.487 0z" fill="#fff"/><path opacity=".76" d="M203.871 219.765a3.467 3.467 0 01-2.449-1.014 3.467 3.467 0 01-1.014-2.449 50.212 50.212 0 0150.125-50.125 3.465 3.465 0 013.463 3.463 3.463 3.463 0 01-3.463 3.463 43.287 43.287 0 00-43.199 43.199c0 .918-.365 1.799-1.014 2.449a3.467 3.467 0 01-2.449 1.014z" fill="#fff"/><path opacity=".58" d="M246.811 272.357a56.527 56.527 0 01-55.454-67.558 56.53 56.53 0 0177.083-41.2 56.532 56.532 0 0134.894 52.235 56.596 56.596 0 01-56.523 56.523zm0-109.591a53.071 53.071 0 00-49.035 32.754 53.064 53.064 0 0011.498 57.836 53.067 53.067 0 0090.597-37.522 53.12 53.12 0 00-53.06-53.068z" fill="#3E479B"/><path d="M246.811 151.027a64.814 64.814 0 00-60.552 39.829 64.826 64.826 0 000 49.948 64.804 64.804 0 0035.522 35.113 64.777 64.777 0 0025.03 4.716 64.2 64.2 0 0039.433-13.401l11.54-11.531c.054-.048.112-.092.174-.13l.155-.165a64.17 64.17 0 0013.506-39.572 64.877 64.877 0 00-64.808-64.807zm0 10.873a53.936 53.936 0 0138.149 92.069 53.94 53.94 0 01-82.984-8.169 53.936 53.936 0 01-9.091-29.966 53.997 53.997 0 0153.926-53.934z" fill="#394760"/><path d="M295.594 265.085l-2.485-2.476a2.457 2.457 0 010-3.463l-7.393 7.402-.121.121a2.434 2.434 0 00-.533 2.67c.123.297.304.566.533.793l3.004 3.013c.995-1.671 3.904-4.935 6.995-8.06z" fill="#ADC0E0"/><path d="M293.11 259.146a2.46 2.46 0 000 3.463l2.484 2.476a69.072 69.072 0 017.913-7.116l-2.874-2.883a2.441 2.441 0 00-3.204-.208l-.259.208-4.06 4.06z" fill="#4C65BA"/><path d="M293.11 259.146a2.46 2.46 0 000 3.463l2.484 2.476a69.072 69.072 0 017.913-7.116l-2.874-2.883a2.441 2.441 0 00-3.204-.208l-.259.208-4.06 4.06z" fill="#8BA0C2"/><path d="M349.892 302.969l-45.018-45.511c-.164-.164-.658.052-1.367.528a68.903 68.903 0 00-7.913 7.117c-3.091 3.125-6 6.389-6.995 8.051-.32.536-.442.917-.303 1.056l45.017 45.519a11.633 11.633 0 008.289 3.474 11.634 11.634 0 008.29-3.474 11.939 11.939 0 000-16.76z" fill="#007AFF"/><path opacity=".14" d="M349.892 302.969l-45.018-45.511c-.606-.614-5.739 3.983-10.146 8.519-3.748 3.87 50.593 58.384 55.172 53.752a11.938 11.938 0 00-.008-16.76z" fill="#394760"/><path d="M219.705 158.368H71.702c-8.65 0-15.661 7.01-15.661 15.657 0 8.646 7.012 15.656 15.66 15.656h148.004c8.649 0 15.661-7.01 15.661-15.656 0-8.647-7.012-15.657-15.661-15.657z" fill="#fff"/><path d="M219.705 189.681H195.63l-.113-31.287h24.188a15.658 15.658 0 0111.071 4.588 15.629 15.629 0 013.392 5.081 15.64 15.64 0 01-14.463 21.618z" fill="#007AFF"/><path d="M213.611 179.518a6.851 6.851 0 01-6.327-4.228 6.85 6.85 0 011.484-7.462 6.845 6.845 0 017.463-1.485 6.851 6.851 0 014.227 6.327 6.859 6.859 0 01-6.847 6.848zm0-11.965a5.12 5.12 0 00-5.019 6.115 5.123 5.123 0 004.02 4.02 5.12 5.12 0 005.253-2.176c.562-.841.862-1.83.862-2.842a5.124 5.124 0 00-5.116-5.117z" fill="#fff"/><path d="M223.246 183.223a.857.857 0 01-.615-.251l-5.428-5.437a.86.86 0 01-.207-.596.864.864 0 011.428-.625l5.437 5.429a.864.864 0 01-.615 1.48z" fill="#fff"/></svg>