<svg width="180" height="55" fill="none" xmlns="http://www.w3.org/2000/svg"><path d="M99.777 39.25c.742.742 1.101 1.64 1.101 2.697 0 1.056-.359 1.954-1.1 2.673-.742.742-1.64 1.101-2.72 1.101-1.078 0-1.976-.36-2.718-1.1-.741-.742-1.1-1.618-1.1-2.674 0-1.056.359-1.955 1.1-2.696.742-.742 1.64-1.101 2.719-1.101 1.078 0 1.977.36 2.718 1.1zm-1.056 4.404c.45-.45.674-1.033.674-1.707 0-.697-.224-1.259-.674-1.73-.449-.472-1.01-.697-1.662-.697-.652 0-1.213.225-1.663.697-.45.471-.674 1.033-.674 1.73 0 .696.225 1.258.674 1.707.45.45 1.011.674 1.663.674.651 0 1.213-.225 1.662-.674z" fill="url(#paint0_linear)"/><path d="M110.652 45.564h-1.236l-4.022-4.65v4.65h-1.483v-7.257h1.236l4.022 4.786v-4.786h1.483v7.257z" fill="url(#paint1_linear)"/><path d="M119.661 45.564h-5.212v-7.257h1.482v5.931h3.752l-.022 1.326z" fill="url(#paint2_linear)"/><path d="M123.121 45.564v-7.257h1.483v7.257h-1.483z" fill="url(#paint3_linear)"/><path d="M135.096 45.564h-1.236l-4.021-4.65v4.65h-1.483v-7.257h1.236l4.021 4.786v-4.786h1.483v7.257z" fill="url(#paint4_linear)"/><path d="M144.397 45.564h-5.504v-7.257h5.482v1.326h-4.022v1.64h3.707v1.303h-3.707v1.64h4.044v1.348z" fill="url(#paint5_linear)"/><path d="M69.312 18.985c-.495-1.82-1.977-2.494-3.955-2.494-1.662 0-3.437.674-3.437 2.112 0 1.303.854 1.82 2.426 2.18l2.494.494c3.28.674 6.201 1.752 6.201 5.19 0 3.55-3.302 5.55-7.347 5.55-4.448 0-7.1-2.562-7.526-5.842h3.437c.495 1.977 1.73 3.145 4.202 3.145 2.202 0 3.864-.899 3.864-2.471 0-1.596-1.528-2.27-3.348-2.629l-2.628-.517c-2.629-.517-5.1-1.662-5.1-4.965 0-3.078 3.28-4.965 7.077-4.965 3.55 0 6.29 1.842 6.987 5.235h-3.347v-.023zm19.883 7.481h3.415c-.786 2.899-3.437 5.55-7.863 5.55-5.617 0-8.695-4.134-8.695-9.19 0-5.414 3.64-9.031 8.605-9.031 5.392 0 8.537 4.426 8.178 10.11H79.512c.36 3.258 2.337 5.235 5.1 5.235 2.471-.022 3.82-1.01 4.583-2.674zm-9.616-5.234h9.751c-.09-2.562-1.955-4.674-4.718-4.674-2.629 0-4.56 1.326-5.033 4.674zm16.581 5.661c0-4.246 5.033-5.414 11.795-6.11v-.36c0-3.078-1.617-4.134-3.774-4.134-2.337 0-3.662 1.168-3.797 3.348h-3.415c.27-3.73 3.348-5.954 7.347-5.954 4.516 0 7.077 2.179 7.054 7.414 0 .427-.067 3.437-.067 4.201 0 2.629.157 4.74.494 6.291h-3.257c-.135-.674-.203-1.168-.292-2.314-1.034 1.797-2.989 2.719-5.842 2.719-3.55.022-6.246-1.933-6.246-5.1zm11.953-3.617c-5.415.517-8.29 1.303-8.29 3.55 0 1.595 1.235 2.606 3.302 2.606 2.763 0 4.965-1.393 4.965-4.875l.023-1.28zm11.188 8.314h-3.37V14.11h3.37v2.538c1.011-1.73 2.674-2.853 5.168-2.853 2.718 0 4.291 1.146 5.078 3.078 1.46-2.202 3.482-3.078 5.774-3.078 4.089 0 5.684 2.719 5.684 6.785v11.01h-3.37V21.478c0-2.494-.427-4.876-3.438-4.876-2.696 0-4.021 2.09-4.021 5.595v9.391h-3.37V21.48c0-2.494-.427-4.876-3.438-4.876-2.719 0-4.022 2.09-4.022 5.595v9.391h-.045zm25.703-4.697c0-4.246 5.033-5.414 11.795-6.11v-.36c0-3.078-1.617-4.134-3.774-4.134-2.337 0-3.662 1.168-3.797 3.348h-3.415c.27-3.73 3.348-5.954 7.347-5.954 4.516 0 7.077 2.179 7.054 7.414 0 .427-.067 3.437-.067 4.201 0 2.629.157 4.74.494 6.291h-3.257c-.135-.674-.203-1.168-.292-2.314-1.034 1.797-2.989 2.719-5.842 2.719-3.55.022-6.246-1.933-6.246-5.1zm11.975-3.617c-5.414.517-8.29 1.303-8.29 3.55 0 1.595 1.235 2.606 3.302 2.606 2.764 0 4.966-1.393 4.966-4.875v-1.28h.022zm11.166-6.628c1.011-1.73 2.764-2.853 5.482-2.853 4.224 0 5.842 2.719 5.842 6.785v11.01h-3.37V21.478c0-2.494-.382-4.876-3.617-4.876-2.966 0-4.359 2.09-4.359 5.595v9.391h-3.37V14.11h3.37v2.54h.022z" fill="#394760"/><path d="M21.86 0c4.27 20.985 1.124 38.105-1.325 47.361-1.213-10.74-2.426-21.524-3.64-32.263a125.056 125.056 0 01-5.167 16.693l5.976.54-6.493.763c-.786 1.933-1.595 3.865-2.539 5.864l8.987.742-9.863 1.1c-.988 2-1.955 3.91-2.966 5.73l12.627 1.213L3.1 49.608C2.045 51.36 1.033 53.023 0 54.573 21.12 52.461 35.835 41.43 35.386 55c20.58-16.895 7.28-45.317-13.525-55z" fill="url(#paint6_linear)"/><defs><linearGradient id="paint0_linear" x1="97.066" y1="50.622" x2="97.066" y2="37.84" gradientUnits="userSpaceOnUse"><stop stop-color="#425AF4"/><stop offset="1" stop-color="#42A4F4"/></linearGradient><linearGradient id="paint1_linear" x1="107.289" y1="50.622" x2="107.289" y2="37.84" gradientUnits="userSpaceOnUse"><stop stop-color="#425AF4"/><stop offset="1" stop-color="#42A4F4"/></linearGradient><linearGradient id="paint2_linear" x1="117.073" y1="50.622" x2="117.073" y2="37.84" gradientUnits="userSpaceOnUse"><stop stop-color="#425AF4"/><stop offset="1" stop-color="#42A4F4"/></linearGradient><linearGradient id="paint3_linear" x1="123.87" y1="50.622" x2="123.87" y2="37.84" gradientUnits="userSpaceOnUse"><stop stop-color="#425AF4"/><stop offset="1" stop-color="#42A4F4"/></linearGradient><linearGradient id="paint4_linear" x1="131.733" y1="50.622" x2="131.733" y2="37.84" gradientUnits="userSpaceOnUse"><stop stop-color="#425AF4"/><stop offset="1" stop-color="#42A4F4"/></linearGradient><linearGradient id="paint5_linear" x1="141.652" y1="50.622" x2="141.652" y2="37.84" gradientUnits="userSpaceOnUse"><stop stop-color="#425AF4"/><stop offset="1" stop-color="#42A4F4"/></linearGradient><linearGradient id="paint6_linear" x1="-2.677" y1="51.93" x2="39.902" y2="18.672" gradientUnits="userSpaceOnUse"><stop stop-color="#425AF4"/><stop offset="1" stop-color="#42A4F4"/></linearGradient></defs></svg>