<svg width="146" height="120" fill="none" xmlns="http://www.w3.org/2000/svg"><path d="M13.345 87.67c-.592-2.198-2.368-3.013-4.735-3.013-1.991 0-4.117.815-4.117 2.552 0 1.575 1.023 2.2 2.906 2.634l2.987.597c3.928.814 7.425 2.118 7.425 6.272 0 4.289-3.955 6.705-8.798 6.705-5.327 0-8.502-3.095-9.013-7.058h4.117c.591 2.389 2.071 3.8 5.03 3.8 2.638 0 4.629-1.086 4.629-2.986 0-1.928-1.83-2.742-4.01-3.177l-3.147-.624c-3.148-.624-6.108-2.009-6.108-6 0-3.72 3.928-6 8.475-6 4.252 0 7.534 2.226 8.368 6.326h-4.009v-.027zm23.815 9.063h4.09c-.941 3.502-4.116 6.706-9.416 6.706-6.727 0-10.413-4.996-10.413-11.104 0-6.543 4.359-10.914 10.305-10.914 6.457 0 10.224 5.348 9.794 12.217H25.565c.43 3.936 2.798 6.326 6.107 6.326 2.96-.028 4.574-1.222 5.489-3.231zm-11.515-6.326h11.677c-.107-3.095-2.34-5.647-5.65-5.647-3.148 0-5.462 1.602-6.027 5.647zm19.85 6.841c0-5.131 6.027-6.543 14.125-7.385v-.434c0-3.72-1.937-4.996-4.52-4.996-2.798 0-4.385 1.412-4.547 4.046h-4.09c.323-4.507 4.01-7.195 8.799-7.195 5.408 0 8.475 2.634 8.448 8.96 0 .515-.08 4.153-.08 5.076 0 3.177.188 5.729.591 7.602H60.32c-.162-.814-.242-1.412-.35-2.796-1.238 2.172-3.578 3.285-6.995 3.285-4.252.027-7.48-2.335-7.48-6.163zm14.314-4.371c-6.485.624-9.928 1.575-9.928 4.29 0 1.927 1.48 3.149 3.955 3.149 3.309 0 5.946-1.683 5.946-5.892v-1.547h.027zm13.403 10.046h-4.036V81.801h4.036v3.068c1.21-2.09 3.202-3.448 6.188-3.448 3.256 0 5.14 1.384 6.08 3.72 1.75-2.662 4.171-3.72 6.916-3.72 4.896 0 6.807 3.285 6.807 8.199v13.303h-4.036V90.706c0-3.014-.511-5.892-4.117-5.892-3.228 0-4.816 2.525-4.816 6.76v11.349h-4.036V90.706c0-3.014-.51-5.892-4.116-5.892-3.256 0-4.816 2.525-4.816 6.76v11.349h-.054zm30.78-5.675c0-5.131 6.027-6.543 14.126-7.385v-.434c0-3.72-1.937-4.996-4.52-4.996-2.798 0-4.386 1.412-4.547 4.046h-4.09c.323-4.507 4.009-7.195 8.798-7.195 5.408 0 8.475 2.634 8.449 8.96 0 .515-.081 4.153-.081 5.076 0 3.177.188 5.729.592 7.602h-3.902c-.161-.814-.242-1.412-.349-2.796-1.238 2.172-3.579 3.285-6.996 3.285-4.251.027-7.48-2.335-7.48-6.163zm14.341-4.371c-6.484.624-9.928 1.575-9.928 4.29 0 1.927 1.48 3.149 3.955 3.149 3.309 0 5.946-1.683 5.946-5.892v-1.547h.027zm13.368-8.008c1.211-2.09 3.31-3.448 6.565-3.448 5.059 0 6.996 3.285 6.996 8.199v13.303h-4.036V90.706c0-3.014-.457-5.892-4.332-5.892-3.551 0-5.219 2.525-5.219 6.76v11.349h-4.036V81.801h4.036v3.068h.026z" fill="#394760"/><path d="M49.831 112.181c.888.896 1.319 1.982 1.319 3.258s-.43 2.362-1.319 3.231c-.887.896-1.964 1.33-3.255 1.33-1.292 0-2.368-.434-3.256-1.33-.888-.896-1.318-1.955-1.318-3.231 0-1.276.43-2.362 1.318-3.258.888-.896 1.964-1.33 3.256-1.33 1.291 0 2.368.434 3.255 1.33zm-1.264 5.321c.538-.543.807-1.249.807-2.063 0-.842-.269-1.521-.807-2.091-.538-.57-1.21-.841-1.991-.841-.78 0-1.453.271-1.991.841s-.807 1.249-.807 2.091c0 .841.269 1.52.807 2.063.538.543 1.21.815 1.99.815.781 0 1.454-.272 1.992-.815z" fill="url(#paint0_linear)"/><path d="M62.852 119.811h-1.48l-4.816-5.62v5.62h-1.775v-8.77h1.48l4.816 5.783v-5.783h1.776v8.77z" fill="url(#paint1_linear)"/><path d="M73.637 119.811h-6.242v-8.77h1.776v7.168h4.493v1.602h-.027z" fill="url(#paint2_linear)"/><path d="M77.785 119.811v-8.77h1.776v8.77h-1.776z" fill="url(#paint3_linear)"/><path d="M92.127 119.811h-1.48l-4.816-5.62v5.62h-1.776v-8.77h1.48l4.816 5.783v-5.783h1.776v8.77z" fill="url(#paint4_linear)"/><path d="M103.265 119.811h-6.592v-8.77h6.565v1.602h-4.816v1.982h4.439v1.575h-4.44v1.982h4.844v1.629z" fill="url(#paint5_linear)"/><path d="M70.092 0a127.418 127.418 0 01-1.587 57.53c-1.48-13.06-2.96-26.145-4.412-39.204a151.334 151.334 0 01-6.243 20.28l7.211.652-7.83.95a142.177 142.177 0 01-3.067 7.113l10.843.896-11.892 1.33c-1.184 2.417-2.368 4.752-3.579 6.95l15.23 1.467-17.328 2.253a130.113 130.113 0 01-3.74 6.028c25.48-2.553 43.264-15.964 42.726.515C111.285 46.29 95.195 11.756 70.092 0z" fill="url(#paint6_linear)"/><defs><linearGradient id="paint0_linear" x1="46.581" y1="125.912" x2="46.581" y2="110.467" gradientUnits="userSpaceOnUse"><stop stop-color="#425AF4"/><stop offset="1" stop-color="#42A4F4"/></linearGradient><linearGradient id="paint1_linear" x1="58.822" y1="125.913" x2="58.822" y2="110.468" gradientUnits="userSpaceOnUse"><stop stop-color="#425AF4"/><stop offset="1" stop-color="#42A4F4"/></linearGradient><linearGradient id="paint2_linear" x1="70.505" y1="125.913" x2="70.505" y2="110.468" gradientUnits="userSpaceOnUse"><stop stop-color="#425AF4"/><stop offset="1" stop-color="#42A4F4"/></linearGradient><linearGradient id="paint3_linear" x1="78.662" y1="125.913" x2="78.662" y2="110.468" gradientUnits="userSpaceOnUse"><stop stop-color="#425AF4"/><stop offset="1" stop-color="#42A4F4"/></linearGradient><linearGradient id="paint4_linear" x1="88.109" y1="125.913" x2="88.109" y2="110.468" gradientUnits="userSpaceOnUse"><stop stop-color="#425AF4"/><stop offset="1" stop-color="#42A4F4"/></linearGradient><linearGradient id="paint5_linear" x1="99.97" y1="125.913" x2="99.97" y2="110.468" gradientUnits="userSpaceOnUse"><stop stop-color="#425AF4"/><stop offset="1" stop-color="#42A4F4"/></linearGradient><linearGradient id="paint6_linear" x1="40.54" y1="63.187" x2="92.192" y2="23.096" gradientUnits="userSpaceOnUse"><stop stop-color="#425AF4"/><stop offset="1" stop-color="#42A4F4"/></linearGradient></defs></svg>